<?xml version="1.0" standalone="no"?>
<!DOCTYPE svg PUBLIC "-//W3C//DTD SVG 20010904//EN"
 "http://www.w3.org/TR/2001/REC-SVG-20010904/DTD/svg10.dtd">
<svg version="1.0" xmlns="http://www.w3.org/2000/svg"
 width="1600.000000pt" height="1600.000000pt" viewBox="0 0 1600.000000 1600.000000"
 preserveAspectRatio="xMidYMid meet">

<g transform="translate(0.000000,1600.000000) scale(0.100000,-0.100000)"
fill="#000000" stroke="none">
<path d="M8270 15964 c156 -72 282 -140 315 -171 39 -37 53 -77 36 -104 -15
-25 -14 -49 3 -49 9 0 12 -7 9 -20 -3 -11 -9 -20 -14 -20 -5 0 -9 -7 -9 -15 0
-8 5 -15 10 -15 6 0 10 -16 10 -35 0 -24 -5 -35 -15 -35 -17 0 -21 -36 -4 -42
9 -3 9 -35 0 -123 -15 -156 -39 -341 -57 -434 -8 -40 -14 -85 -14 -100 0 -15
-9 -36 -19 -48 -13 -13 -16 -25 -10 -34 14 -22 11 -49 -6 -49 -18 0 -20 -16
-2 -23 9 -4 8 -8 -3 -16 -13 -10 -13 -12 0 -20 12 -8 10 -12 -10 -20 -22 -8
-22 -10 -5 -11 11 -1 14 -4 8 -7 -7 -2 -13 -11 -13 -19 0 -8 -6 -14 -12 -14
-7 0 -5 -5 5 -11 18 -11 24 -39 7 -39 -5 0 -10 -16 -10 -35 0 -24 -5 -35 -15
-35 -8 0 -15 -8 -14 -17 0 -11 3 -13 6 -5 8 20 22 14 16 -8 -3 -11 -12 -20
-19 -20 -17 0 -19 -17 -3 -22 18 -6 1 -68 -19 -69 -11 0 -12 -2 -4 -6 23 -9
10 -93 -14 -93 -15 0 -19 -16 -5 -22 16 -6 -11 -108 -28 -108 -13 0 -13 -2 -3
-9 15 -9 15 -20 2 -36 -4 -5 -13 -30 -20 -55 -6 -25 -17 -58 -24 -75 -32 -76
-56 -142 -56 -155 0 -8 -7 -24 -15 -34 -8 -11 -15 -27 -15 -35 0 -8 -9 -33
-19 -55 -11 -23 -28 -62 -39 -88 -14 -31 -27 -48 -39 -49 -10 0 -13 -3 -5 -6
17 -7 15 -30 -5 -45 -10 -7 -19 -22 -21 -32 -4 -24 -42 -76 -56 -76 -5 0 -28
-9 -50 -19 -45 -22 -241 -47 -282 -37 -13 4 -24 2 -24 -3 0 -5 -16 -11 -35
-13 -25 -3 -35 0 -39 12 -3 12 -4 11 -5 -2 -1 -14 -10 -18 -45 -18 -26 0 -46
5 -49 13 -3 7 -6 5 -6 -5 -1 -13 -9 -18 -31 -18 -16 0 -30 -4 -30 -8 0 -4 -23
-9 -51 -10 -28 -1 -59 -7 -69 -12 -10 -6 -31 -10 -45 -10 -35 0 -422 -77 -456
-91 -15 -6 -37 -12 -50 -14 -45 -6 -154 -38 -183 -52 -24 -12 -30 -13 -37 -1
-7 10 -9 10 -9 0 0 -7 -4 -11 -9 -8 -5 4 -11 3 -13 -1 -6 -15 -67 -53 -80 -50
-7 2 -10 2 -5 0 12 -8 8 -23 -7 -23 -8 0 -16 -3 -18 -7 -4 -11 -125 -73 -141
-73 -7 0 -22 -8 -33 -17 -10 -10 -28 -19 -39 -20 -29 -2 -127 -20 -150 -28
-36 -12 99 52 147 69 26 10 46 22 45 28 -1 6 4 13 11 15 6 3 12 0 12 -5 0 -6
9 -8 19 -5 11 3 17 11 15 18 -4 10 1 12 15 8 20 -5 31 12 12 19 -6 2 -12 15
-15 30 -3 20 -1 25 10 21 8 -3 14 -9 14 -14 0 -5 12 -9 28 -9 21 0 24 2 12 10
-8 5 -10 10 -5 11 15 1 -87 29 -108 29 -17 0 -67 33 -111 73 -27 24 -43 22
-21 -3 21 -24 14 -38 -8 -16 -8 8 -18 12 -21 8 -4 -3 -10 5 -13 18 -6 22 -7
23 -14 4 -7 -18 -8 -18 -8 0 -1 11 -30 47 -65 80 -67 64 -106 116 -88 116 6 0
16 -9 22 -20 6 -11 15 -20 21 -20 6 0 2 12 -9 28 -10 15 -22 35 -25 45 -4 11
-16 21 -27 24 -11 3 -20 10 -20 17 0 6 -9 28 -20 49 -11 20 -20 41 -20 47 0 5
-13 32 -30 58 -16 27 -33 63 -36 81 -4 17 -11 31 -15 31 -5 0 -14 12 -20 28
-6 15 -17 40 -25 56 -8 16 -14 40 -14 53 0 14 -7 31 -15 39 -8 9 -15 31 -15
50 0 20 -6 37 -14 40 -8 3 -17 28 -21 62 -4 31 -12 63 -17 70 -7 8 -7 12 1 12
6 0 11 12 10 28 -1 15 -1 32 1 37 8 33 -3 35 -25 4 -22 -34 -55 -58 -55 -41 0
4 18 26 40 50 21 23 38 42 36 42 -3 0 2 24 10 53 17 66 17 70 -1 63 -23 -9
-18 2 25 54 22 26 40 51 40 55 0 4 13 24 29 44 15 20 32 47 36 60 7 23 6 24
-28 18 -36 -6 -59 7 -51 28 7 16 -16 24 -41 14 -11 -4 -16 -8 -11 -8 13 -1
-86 -71 -101 -71 -6 0 -18 -8 -25 -19 -7 -10 -39 -46 -71 -80 -31 -34 -57 -65
-57 -69 0 -4 -12 -21 -27 -37 -28 -30 -75 -103 -119 -184 -32 -60 -54 -134
-47 -163 4 -13 2 -20 -3 -15 -5 5 -10 13 -10 18 -1 5 -2 15 -3 22 -2 14 -60
-160 -60 -183 -1 -13 0 -13 10 0 8 12 9 10 5 -10 -3 -14 -6 -29 -6 -33 0 -5
-4 -6 -9 -3 -10 6 -21 -74 -21 -154 0 -35 -3 -50 -9 -41 -12 19 -24 -4 -16
-30 6 -17 9 -19 16 -8 5 9 8 -6 7 -41 0 -30 -3 -43 -5 -27 -2 15 -8 27 -13 27
-9 0 -9 -3 15 -222 8 -75 15 -140 15 -143 0 -16 -691 8 -749 26 -21 6 -59 35
-91 68 -54 55 -144 109 -220 131 -33 10 -253 39 -295 40 -15 0 -362 -269 -503
-391 -19 -16 -21 -26 -16 -62 7 -49 71 -192 109 -241 14 -19 22 -36 18 -39 -5
-3 -61 -9 -126 -13 l-119 -7 -72 72 -72 71 -144 -118 c-80 -64 -225 -182 -323
-260 l-177 -144 -728 290 c-400 159 -728 289 -729 288 -2 -2 -41 -235 -87
-519 l-85 -517 -350 -388 -350 -387 -1 -292 0 -293 216 -816 215 -815 -200
-997 c-110 -548 -207 -1051 -216 -1117 -13 -104 -15 -520 -15 -3382 l0 -3263
4575 0 4575 0 -6 33 c-10 57 -83 281 -99 305 -9 12 -23 22 -31 22 -20 0 -99
67 -99 83 0 7 -8 12 -18 12 -10 0 -27 11 -38 25 -20 24 -21 24 -16 3 7 -34 -7
-28 -43 16 -17 22 -40 43 -50 46 -11 4 -20 15 -20 26 0 10 -5 19 -11 19 -6 0
-20 11 -31 25 -22 29 -40 33 -31 7 6 -15 5 -16 -13 -2 -10 8 -30 27 -44 41
-42 44 -215 140 -237 132 -7 -3 -13 1 -13 9 0 7 -11 14 -24 14 -14 1 -32 8
-41 15 -20 16 -66 56 -115 97 -19 17 -32 34 -27 38 4 4 17 -2 30 -14 33 -31
41 -27 15 8 -12 17 -28 30 -35 30 -7 0 -13 5 -13 11 0 6 -10 25 -23 42 -42 57
-100 198 -105 251 -2 32 4 82 17 133 25 96 24 131 -4 149 -31 20 -128 50 -227
70 -91 17 -116 32 -50 28 60 -3 135 -19 254 -54 45 -13 78 -52 78 -91 0 -16
-9 -62 -20 -101 -11 -40 -20 -89 -20 -110 0 -43 37 -148 51 -148 6 0 7 -5 4
-10 -3 -6 -1 -10 5 -10 6 0 8 -5 5 -10 -3 -6 -2 -10 2 -10 5 0 9 -9 10 -20 3
-34 124 -180 150 -180 8 0 40 -21 70 -46 31 -25 69 -52 85 -60 15 -8 28 -19
28 -25 0 -6 4 -7 10 -4 5 3 10 1 10 -5 0 -6 4 -9 10 -5 5 3 18 -3 29 -14 11
-11 22 -17 25 -13 3 3 6 0 6 -7 0 -7 5 -9 10 -6 6 3 10 2 10 -3 0 -5 6 -9 13
-9 32 0 184 -99 296 -194 14 -11 55 -41 93 -65 67 -44 133 -117 122 -135 -3
-5 -1 -9 5 -9 13 0 54 -84 43 -88 -13 -4 31 -152 46 -152 6 0 12 -4 12 -10 0
-5 -4 -10 -10 -10 -5 0 -10 -7 -10 -15 0 -8 7 -15 15 -15 8 0 15 -4 15 -10 0
-5 -4 -10 -10 -10 -5 0 -10 -4 -10 -10 0 -7 1143 -10 3410 -10 l3410 0 0 3270
c0 2609 -3 3270 -12 3270 -30 0 -58 -13 -58 -26 0 -8 -7 -14 -15 -14 -8 0 -15
5 -15 10 0 16 -37 12 -54 -6 -9 -8 -16 -11 -16 -5 0 16 -147 14 -153 -1 -4
-10 -6 -10 -6 0 -1 7 -5 10 -11 7 -5 -3 -10 -1 -10 5 0 6 -10 8 -24 4 -34 -8
-96 47 -96 86 0 15 -7 30 -14 33 -11 4 -13 16 -9 41 4 28 2 37 -12 42 -13 5
-14 9 -3 15 10 7 10 9 -2 9 -11 0 -12 2 -2 8 17 11 -5 112 -25 112 -7 0 -13 7
-13 15 0 8 4 15 9 15 13 0 0 51 -15 57 -9 3 -12 14 -8 29 4 17 2 24 -8 24 -17
0 -42 60 -25 60 7 0 4 5 -5 10 -19 12 -43 75 -33 90 3 5 1 10 -5 10 -6 0 -8 4
-5 10 3 5 1 10 -5 10 -6 0 -8 4 -5 10 3 5 -13 35 -35 65 -45 60 -73 119 -63
129 4 3 1 6 -6 6 -7 0 -9 5 -6 10 3 6 1 10 -6 10 -7 0 -10 3 -7 6 4 3 -2 14
-13 25 -11 11 -17 24 -14 29 4 6 2 10 -3 10 -13 0 -43 47 -45 70 -1 10 -5 18
-11 17 -5 -1 -29 30 -53 68 -31 50 -42 77 -38 93 4 18 1 25 -13 29 -24 6 -47
46 -39 67 4 9 2 16 -3 16 -6 0 -9 3 -9 8 4 23 -3 43 -22 61 -12 11 -18 24 -15
29 3 6 0 17 -8 25 -8 8 -12 17 -9 21 4 3 2 6 -4 6 -16 0 -26 32 -12 40 8 5 6
20 -5 54 -9 26 -16 53 -16 62 0 8 -7 17 -16 21 -11 4 -14 13 -10 29 4 13 2 24
-3 24 -4 0 -12 19 -16 43 -4 23 -9 48 -11 55 -1 6 2 12 8 12 15 0 0 63 -17 73
-9 4 -15 22 -15 40 0 24 3 28 10 17 13 -20 12 -4 -1 43 -5 20 -13 37 -17 37
-4 0 -8 18 -8 41 -1 22 -6 45 -12 51 -6 6 -8 17 -5 24 3 8 -1 14 -11 14 -12 0
-15 6 -10 25 4 14 2 25 -4 25 -6 0 -9 11 -8 24 2 15 -3 27 -11 31 -9 3 -13 12
-9 20 3 8 1 17 -5 21 -6 3 -7 19 -4 35 5 22 2 31 -10 35 -9 4 -13 13 -10 24 3
9 -1 32 -8 51 -15 36 -23 58 -27 74 -2 6 -9 15 -16 20 -15 12 -89 214 -81 222
3 3 -3 15 -14 27 -11 11 -18 29 -15 38 2 10 -1 18 -7 18 -6 0 -8 3 -4 6 3 3
-4 15 -15 26 -12 12 -18 28 -15 39 3 10 1 19 -5 19 -5 0 -6 4 -3 10 3 5 1 10
-5 10 -6 0 -8 5 -5 10 3 5 1 10 -5 10 -6 0 -8 5 -5 10 3 6 2 10 -4 10 -13 0
-113 198 -108 214 2 6 -7 19 -19 29 -12 9 -28 34 -35 55 -6 20 -20 46 -30 58
-11 11 -17 23 -14 26 3 3 -1 11 -10 18 -8 7 -15 18 -15 25 0 6 -13 30 -29 52
-27 38 -44 66 -97 162 -11 21 -29 51 -41 67 -25 37 -71 125 -75 144 -2 8 -11
21 -21 30 -10 8 -19 25 -20 38 -1 12 -4 22 -7 22 -4 0 -7 21 -8 48 -2 26 -5
55 -8 65 -3 10 1 20 10 23 9 3 13 10 10 15 -3 5 1 9 8 9 9 0 9 3 -2 10 -22 14
-30 12 -30 -9 0 -10 -7 -22 -16 -25 -22 -8 -24 -8 -24 9 0 9 6 12 15 9 9 -4
15 0 15 10 0 8 13 22 29 30 18 10 54 55 97 123 38 60 78 122 91 139 13 17 23
35 23 41 0 6 20 32 44 59 48 53 63 72 171 216 84 111 178 222 289 339 44 47
119 128 166 179 47 51 105 108 130 127 24 19 87 75 140 126 53 51 134 123 181
160 46 38 99 80 117 95 19 15 46 33 60 41 15 7 39 25 54 38 14 14 28 24 30 22
1 -2 49 28 106 66 57 39 111 75 122 80 10 6 24 16 31 22 8 6 23 13 34 15 11 1
25 10 32 19 6 9 41 30 77 48 l66 32 0 1680 0 1679 -3902 0 -3903 -1 75 -35z
m5550 -907 c0 -2 -34 -39 -75 -82 -79 -83 -118 -99 -45 -18 65 72 120 117 120
100z m885 -577 c21 -28 35 -54 31 -57 -3 -4 -7 -4 -9 -2 -1 2 -19 25 -40 51
-39 48 -43 58 -28 58 5 0 26 -23 46 -50z m-9207 -192 c19 -19 14 -30 -8 -18
-11 6 -20 15 -20 20 0 14 14 12 28 -2z m-94 -183 c24 -36 19 -42 -9 -11 -27
29 -30 36 -16 36 5 0 16 -11 25 -25z m209 -116 c-18 -31 -70 -75 -79 -67 -5 6
78 96 89 97 5 1 0 -13 -10 -30z m-228 -39 c10 -11 16 -22 14 -25 -7 -6 -49 24
-49 36 0 15 16 10 35 -11z m238 -19 c-27 -43 -83 -104 -90 -98 -6 6 7 25 57
85 40 48 61 56 33 13z m82 -271 c3 -5 1 -10 -4 -10 -6 0 -11 5 -11 10 0 6 2
10 4 10 3 0 8 -4 11 -10z m-245 -29 c0 -13 -29 -35 -37 -28 -7 8 15 37 28 37
5 0 9 -4 9 -9z m-214 -30 c-4 -5 -1 -12 4 -14 6 -3 5 -4 -2 -3 -15 3 -23 26
-8 26 6 0 9 -4 6 -9z m288 -13 c-31 -54 -67 -96 -95 -112 -33 -19 -32 -18 12
30 26 28 52 60 58 72 6 12 16 22 22 22 6 0 7 -6 3 -12z m415 -404 c3 -16 -1
-15 -24 6 -15 14 -32 34 -38 45 -9 17 -5 16 24 -6 19 -15 36 -35 38 -45z m87
-55 c19 -22 19 -22 -3 -10 -24 12 -39 31 -25 31 5 0 17 -10 28 -21z m6902
-111 c-2 -6 -10 -14 -16 -16 -7 -2 -10 2 -6 12 7 18 28 22 22 4z m-6918 -252
c0 -2 -7 -7 -16 -10 -8 -3 -12 -2 -9 4 6 10 25 14 25 6z m1771 -505 c5 8 9 10
9 4 0 -7 137 -9 397 -6 417 3 560 -4 746 -39 119 -23 237 -27 237 -7 0 9 2 9
8 0 12 -19 92 -29 103 -12 8 12 11 11 20 -3 11 -20 59 -24 59 -5 0 8 4 7 10
-3 5 -8 10 -10 10 -5 0 6 5 3 10 -5 9 -13 10 -13 10 0 0 12 2 12 9 2 4 -8 59
-24 122 -38 162 -34 159 -34 159 -21 0 8 3 8 8 2 4 -5 21 -11 37 -13 17 -2 35
-9 40 -16 6 -8 58 -28 115 -44 111 -33 250 -80 390 -133 47 -18 97 -32 112
-31 15 1 29 -5 32 -14 4 -10 13 -13 31 -8 14 3 25 2 25 -4 0 -6 9 -8 20 -5 12
3 22 -1 26 -10 3 -9 12 -13 20 -10 8 3 20 -2 27 -10 17 -22 130 -59 138 -45 4
6 15 2 28 -11 12 -12 32 -23 44 -25 12 -1 31 -6 42 -10 61 -25 75 -32 75 -38
0 -5 7 -8 15 -8 8 0 30 -9 50 -20 19 -11 42 -17 50 -14 8 4 15 1 15 -5 0 -6 7
-8 15 -5 8 4 15 1 15 -6 0 -7 7 -10 17 -6 10 4 25 -2 38 -14 13 -12 29 -22 36
-24 8 -1 24 -8 37 -14 12 -7 22 -10 22 -7 0 2 9 -3 20 -12 10 -9 25 -18 33
-19 29 -4 130 -57 184 -98 32 -23 95 -69 141 -101 46 -32 103 -80 128 -107 25
-26 47 -48 50 -48 5 0 132 -111 219 -191 55 -51 102 -89 109 -89 3 0 23 -18
46 -40 22 -22 50 -45 63 -51 35 -19 103 -78 170 -148 121 -127 158 -161 173
-161 18 0 141 -107 219 -189 28 -29 64 -67 81 -84 17 -18 65 -75 106 -127 41
-52 85 -104 97 -114 11 -11 21 -23 21 -28 0 -5 28 -45 63 -89 34 -45 67 -88
72 -97 6 -9 35 -55 66 -102 62 -93 83 -130 74 -130 -3 0 3 -10 15 -22 18 -19
24 -33 18 -40 -1 -2 10 -15 25 -30 15 -15 27 -34 27 -43 0 -8 13 -42 30 -74
16 -32 26 -61 23 -65 -4 -3 -1 -6 6 -6 7 0 9 -4 6 -10 -3 -5 -1 -10 5 -10 6 0
8 -4 5 -10 -3 -5 -1 -10 5 -10 6 0 8 -4 5 -10 -3 -5 -1 -10 5 -10 6 0 8 -4 5
-10 -3 -5 -1 -10 5 -10 6 0 8 -4 5 -10 -3 -5 -1 -10 5 -10 6 0 8 -4 5 -10 -3
-5 -1 -10 5 -10 6 0 8 -4 5 -10 -3 -5 -1 -10 5 -10 6 0 9 -4 6 -9 -3 -5 1 -12
9 -15 11 -4 14 -13 9 -30 -3 -13 -1 -27 5 -30 6 -4 11 -20 11 -35 0 -16 6 -34
14 -40 7 -6 16 -25 20 -43 3 -17 16 -39 28 -49 20 -18 20 -19 2 -19 -11 0 -15
-4 -9 -8 6 -4 21 -28 35 -54 13 -27 28 -48 33 -48 4 0 6 -4 3 -8 -3 -5 12 -60
33 -123 21 -63 46 -144 56 -181 10 -38 22 -68 26 -68 5 0 6 -6 3 -13 -3 -8 0
-27 6 -43 6 -16 10 -29 8 -30 -2 0 5 -9 15 -19 10 -10 16 -26 14 -36 -3 -10
-1 -19 3 -21 5 -2 12 -16 16 -32 5 -21 4 -27 -5 -22 -14 9 -14 2 0 -49 6 -22
18 -46 27 -53 14 -10 14 -14 3 -21 -11 -7 -10 -11 5 -20 15 -9 16 -12 5 -20
-11 -7 -10 -11 5 -20 14 -8 16 -13 6 -19 -9 -6 -10 -16 -2 -38 15 -47 80 -379
100 -514 10 -68 23 -126 29 -128 12 -4 15 -32 4 -32 -5 0 -8 -49 -8 -109 0
-93 -3 -112 -19 -130 -19 -20 -43 -30 -32 -12 3 4 -22 11 -55 14 -39 5 -72 15
-97 32 -20 14 -41 25 -47 25 -6 0 -21 10 -35 23 -14 12 -68 51 -120 87 -205
137 -255 173 -267 188 -7 9 -13 12 -13 8 0 -4 -10 0 -22 8 -12 9 -28 16 -35
16 -26 0 -184 113 -199 141 -8 16 -20 29 -27 29 -18 0 -94 82 -166 180 -35 47
-72 89 -83 94 -11 6 -28 26 -38 45 -10 20 -65 83 -122 141 -56 58 -111 117
-121 132 -10 17 -23 25 -32 22 -8 -4 -27 6 -44 24 -53 53 -193 167 -225 183
-17 8 -30 21 -28 28 1 7 -2 10 -8 6 -5 -3 -10 -1 -10 5 0 6 -4 8 -10 5 -5 -3
-10 -1 -10 5 0 6 -4 8 -10 5 -5 -3 -10 -1 -10 5 0 6 -4 8 -10 5 -5 -3 -10 -1
-10 5 0 6 -4 8 -10 5 -5 -3 -10 -1 -10 5 0 6 -4 8 -10 5 -5 -3 -10 -1 -10 5 0
6 -4 9 -9 6 -5 -4 -11 -2 -13 3 -1 5 -12 11 -23 13 -11 1 -22 5 -25 8 -9 9
-75 32 -135 47 -72 18 -169 13 -210 -10 -16 -9 -42 -22 -58 -29 -15 -7 -30
-20 -33 -30 -3 -10 -11 -18 -17 -18 -25 0 -183 -176 -212 -236 -55 -112 -58
-121 -53 -147 3 -15 0 -28 -6 -30 -7 -2 -11 -36 -12 -86 -1 -45 -4 -85 -8 -88
-3 -3 -6 -33 -6 -65 0 -40 -5 -64 -17 -78 -18 -21 -67 -27 -78 -10 -4 7 -12 7
-24 0 -18 -9 -29 -2 -76 50 -5 6 -19 18 -30 28 -11 9 -33 36 -49 60 -16 23
-34 42 -42 42 -7 0 -25 14 -41 30 -15 17 -32 30 -38 30 -5 1 -26 14 -45 30
-19 17 -46 30 -61 30 -16 0 -41 13 -65 35 -21 19 -48 35 -61 35 -17 0 -23 6
-23 22 0 12 -3 18 -6 15 -8 -8 -153 90 -172 116 -7 9 -18 15 -23 12 -5 -4 -9
-2 -9 2 0 5 -9 9 -19 10 -10 1 -44 17 -76 35 -31 18 -65 38 -75 44 -11 6 -31
23 -45 38 -15 16 -32 25 -40 22 -8 -3 -15 -1 -15 5 0 6 -4 7 -10 4 -5 -3 -10
-1 -10 5 0 6 -4 8 -10 5 -5 -3 -10 -1 -10 5 0 6 -4 9 -9 5 -5 -3 -17 2 -25 11
-9 8 -16 12 -16 8 0 -3 -7 -1 -15 6 -8 7 -15 9 -15 6 0 -4 -7 0 -16 9 -9 9
-23 14 -30 11 -8 -3 -14 -1 -14 5 0 6 -4 8 -10 4 -13 -8 -80 21 -80 35 0 6 -4
8 -10 5 -5 -3 -10 -1 -10 5 0 6 -4 8 -10 5 -5 -3 -10 -1 -10 5 0 6 -4 8 -10 5
-5 -3 -10 -1 -10 5 0 6 -4 8 -10 5 -5 -3 -10 -1 -10 5 0 6 -4 8 -10 5 -5 -3
-10 -1 -10 5 0 6 -4 8 -10 5 -5 -3 -10 -1 -10 5 0 6 -4 8 -10 5 -5 -3 -10 -2
-10 3 0 12 -56 33 -64 25 -3 -4 -6 -2 -6 4 0 6 -9 9 -20 6 -14 -4 -20 0 -20
11 0 14 -11 21 -32 17 -5 0 -8 4 -8 10 0 5 -4 7 -10 4 -5 -3 -10 -1 -10 5 0 6
-4 8 -10 5 -5 -3 -10 -1 -10 5 0 6 -4 9 -9 6 -4 -3 -21 6 -37 19 -16 14 -35
23 -41 20 -7 -2 -13 0 -13 4 0 11 -59 33 -70 26 -5 -3 -14 1 -22 8 -20 20
-134 56 -157 50 -13 -3 -23 0 -27 11 -3 9 -10 13 -15 10 -5 -3 -9 -1 -9 3 0
13 -65 34 -83 27 -10 -3 -20 2 -27 16 -8 15 -17 19 -31 15 -10 -4 -19 -2 -19
4 0 6 -6 8 -14 5 -15 -6 -71 19 -94 42 -8 9 -23 12 -38 8 -16 -4 -26 -1 -30 9
-3 9 -13 13 -26 9 -14 -3 -19 -1 -14 6 6 10 -86 48 -111 46 -7 -1 -13 3 -13
10 0 6 -4 6 -9 -3 -7 -11 -12 -10 -28 6 -21 21 -83 47 -83 35 0 -4 -4 -1 -8 6
-5 7 -28 15 -52 17 -24 2 -47 10 -52 17 -4 7 -8 9 -8 5 0 -5 -7 -1 -16 7 -17
18 -34 21 -34 6 0 -12 -31 -1 -45 16 -5 6 -62 24 -125 39 -63 15 -125 31 -138
36 -13 5 -34 9 -47 9 -14 0 -25 3 -26 8 0 4 -2 27 -5 51 -2 24 1 50 7 57 6 7
8 18 5 23 -8 12 33 61 51 61 7 0 13 6 13 13 0 7 9 18 20 25 12 7 18 17 15 22
-3 5 3 18 15 30 11 11 17 20 14 20 -3 0 2 7 11 16 9 9 14 21 12 28 -2 6 3 17
10 25 8 7 12 19 9 27 -3 7 0 14 5 16 33 11 59 289 29 308 -11 8 -12 12 -3 18
14 9 6 52 -9 52 -5 0 -6 10 -3 21 8 24 -13 99 -27 99 -5 0 -6 5 -3 10 3 6 0
10 -7 10 -9 0 -9 3 2 10 9 6 11 10 3 10 -7 0 -10 6 -7 14 3 7 -2 20 -10 29 -8
8 -12 17 -9 21 4 3 1 6 -5 6 -6 0 -27 21 -47 47 -33 43 -51 58 -100 82 -11 5
-37 25 -57 44 -20 19 -39 32 -42 29 -3 -3 -6 -1 -6 4 0 5 -10 10 -21 11 -12 1
-38 14 -59 28 -41 28 -105 50 -120 40 -6 -3 -10 -2 -10 4 0 14 -62 26 -417 76
-61 8 -124 22 -140 30 -15 8 -41 15 -57 15 -16 0 -27 2 -24 6 13 13 640 -76
678 -96 10 -5 26 -10 35 -10 24 0 213 -95 227 -114 3 -5 8 4 11 20 4 26 4 26
6 -7 1 -27 8 -41 27 -54 14 -9 28 -14 31 -12 2 3 -7 13 -21 22 -15 10 -26 27
-26 39 1 18 4 17 29 -14 25 -29 31 -32 45 -21 13 11 16 9 21 -11 4 -14 18 -29
33 -35 25 -10 26 -11 5 -12 -13 -1 -23 -7 -23 -14 0 -14 35 -47 49 -47 5 0 11
-15 14 -32 3 -18 22 -85 42 -148 31 -98 36 -130 38 -220 1 -58 -1 -132 -5
-165 -4 -33 -5 -54 -2 -47 3 6 11 12 17 12 6 0 1 -10 -11 -23 -12 -13 -34 -52
-48 -87 -14 -35 -39 -83 -55 -106 -16 -24 -29 -47 -29 -53 0 -6 -9 -16 -20
-23 -11 -7 -20 -17 -20 -21 0 -5 -12 -24 -26 -42 -27 -36 -26 -79 2 -68 9 3
14 -1 14 -15 0 -17 17 -24 128 -51 144 -35 146 -35 137 -21 -3 6 -2 10 3 10 6
0 12 -6 15 -14 3 -8 25 -20 49 -27 24 -6 81 -26 128 -45 169 -66 363 -133 371
-129 4 3 9 1 11 -4 5 -16 521 -211 556 -211 2 0 0 6 -4 13 -6 9 -4 9 8 -1 10
-8 27 -10 45 -6 15 4 25 3 21 -1 -4 -4 3 -16 15 -27 12 -11 15 -16 7 -12 -8 4
-5 -4 8 -17 18 -19 24 -21 31 -10 7 11 13 10 33 -3 14 -9 27 -13 31 -10 4 4
11 -5 17 -20 5 -15 18 -29 27 -33 10 -3 41 -16 70 -29 28 -13 55 -24 58 -24 4
0 39 -15 78 -34 40 -19 104 -49 142 -66 146 -67 248 -121 338 -177 33 -20 41
-22 55 -11 13 11 15 11 9 -4 -6 -17 2 -22 30 -19 6 1 14 -7 18 -18 7 -23 72
-65 97 -63 10 0 25 -12 35 -29 16 -27 26 -33 46 -30 4 0 7 -3 7 -8 0 -5 8 -8
17 -7 10 0 22 -9 27 -21 6 -12 20 -26 32 -32 12 -5 43 -26 69 -45 26 -20 51
-34 56 -30 5 3 9 0 9 -7 0 -7 3 -10 6 -6 3 3 14 -2 25 -11 11 -9 24 -18 29
-18 6 -1 11 -2 13 -4 1 -1 11 -3 22 -5 22 -4 47 -34 39 -46 -2 -4 5 -6 16 -4
12 2 28 1 37 -2 14 -5 14 -7 -1 -15 -13 -7 -14 -12 -3 -28 16 -26 31 -26 17 0
-8 16 -8 20 4 20 14 0 39 -26 81 -85 11 -16 28 -38 38 -49 15 -19 16 -19 10
-2 -4 12 1 24 14 35 17 14 22 35 31 146 10 122 34 243 50 255 4 3 8 14 9 25 1
11 0 14 -3 8 -3 -7 -13 -13 -22 -12 -11 0 -12 2 -4 6 6 2 10 9 6 14 -3 5 5 10
18 10 17 1 18 3 5 6 -16 4 -16 6 0 33 10 18 24 28 36 27 11 -1 22 4 25 12 3 8
0 11 -7 7 -20 -13 -12 20 11 40 20 18 21 18 15 1 -5 -13 -3 -17 5 -14 7 2 12
12 10 21 -2 9 1 15 7 14 14 -4 91 62 91 79 0 8 -5 11 -10 8 -7 -4 -9 2 -5 18
4 15 1 34 -8 49 -14 21 -14 24 0 37 14 13 15 12 9 -13 -4 -18 -3 -25 4 -21 5
3 10 -2 11 -12 0 -15 3 -14 17 6 9 14 25 34 34 45 17 21 17 21 11 -4 -6 -25
-6 -25 15 -6 34 30 39 9 6 -25 -16 -18 -24 -30 -19 -27 6 2 25 11 43 18 17 8
32 18 32 21 0 15 107 31 178 27 66 -3 91 3 60 15 -7 2 -10 8 -6 12 4 4 17 0
30 -9 15 -11 18 -16 8 -17 -16 0 68 -38 87 -38 7 -1 10 6 6 15 -5 14 -3 14 16
3 11 -8 21 -19 21 -26 0 -7 7 -13 15 -13 18 0 113 -48 121 -61 3 -5 10 -9 15
-9 6 0 7 5 4 10 -3 6 3 10 14 10 11 0 23 -5 26 -10 4 -6 24 -19 46 -31 22 -11
43 -28 46 -37 7 -19 71 -82 84 -82 4 0 12 -7 17 -16 8 -14 12 -14 30 -3 18 12
24 10 45 -9 13 -12 29 -38 37 -57 10 -25 19 -34 30 -30 11 4 23 -7 38 -33 12
-21 46 -62 77 -91 30 -29 55 -58 55 -65 0 -7 16 -21 35 -32 24 -12 31 -21 22
-26 -9 -6 -3 -17 21 -37 17 -15 32 -33 32 -39 0 -12 12 -16 36 -13 14 2 39
-27 31 -36 -4 -3 -13 0 -22 7 -8 7 -15 8 -15 4 0 -13 49 -64 60 -64 6 0 10 -6
10 -14 0 -7 18 -25 41 -40 30 -21 39 -32 34 -46 -5 -15 2 -23 31 -35 20 -8 34
-18 31 -21 -4 -4 -1 -16 5 -27 9 -17 12 -18 19 -5 7 13 15 10 49 -22 38 -35
55 -70 28 -54 -7 4 -4 -2 6 -14 21 -25 46 -31 26 -7 -18 22 -8 27 18 9 12 -8
22 -23 22 -32 0 -15 19 -28 68 -49 22 -9 13 13 -24 55 -24 28 -31 42 -20 42
15 0 56 -50 56 -69 0 -6 9 -15 20 -21 11 -6 20 -17 20 -24 0 -8 13 -19 29 -26
16 -6 37 -20 47 -31 9 -10 23 -19 31 -19 7 0 13 -4 13 -10 0 -5 16 -12 35 -16
20 -3 40 -15 46 -25 5 -11 14 -19 20 -19 6 0 22 -14 36 -30 13 -17 29 -30 35
-30 7 0 6 5 -1 14 -8 9 -8 16 -2 20 5 3 18 -5 29 -19 12 -15 23 -21 27 -15 9
14 26 13 23 -2 -2 -7 -6 -15 -9 -18 -4 -3 -3 -14 2 -25 4 -11 8 -15 8 -8 1 19
31 3 31 -16 0 -10 11 -23 25 -29 21 -10 25 -9 25 4 0 8 4 13 10 9 5 -3 7 -12
3 -20 -3 -8 0 -15 6 -15 6 0 11 5 11 10 0 6 5 10 11 10 7 0 9 -9 6 -21 -7 -24
21 -39 34 -18 7 11 10 9 15 -9 9 -31 27 -23 38 16 7 25 13 31 28 27 10 -4 18
-1 18 5 0 6 -4 8 -10 5 -5 -3 -10 3 -10 14 0 12 5 21 10 21 7 0 9 13 6 33 -3
17 -10 75 -16 127 -24 198 -114 656 -135 691 -4 5 -8 22 -11 37 -3 15 -16 72
-30 127 -14 55 -34 134 -44 175 -44 178 -120 405 -128 382 -2 -8 -7 -8 -17 1
-7 7 -11 15 -8 20 2 4 -1 7 -7 7 -8 0 -8 6 0 20 11 20 0 51 -26 75 -15 13 -29
54 -54 150 -23 88 -120 291 -150 315 -10 8 -20 22 -22 30 -2 8 -9 21 -15 28
-7 7 -13 27 -13 43 0 36 -16 69 -33 69 -19 1 -49 49 -42 69 4 13 0 20 -14 24
-10 2 -24 15 -31 27 -11 20 -10 22 4 17 9 -4 16 -5 16 -2 0 2 -32 37 -71 77
-82 84 -108 126 -88 139 11 6 10 9 -4 15 -9 3 -17 10 -17 16 0 5 -27 34 -60
65 -33 30 -60 64 -60 74 0 10 -5 18 -11 16 -6 -1 -13 9 -14 22 -1 14 -17 37
-38 54 -21 16 -37 35 -37 42 0 8 -13 23 -29 35 -17 11 -32 29 -36 39 -3 10
-13 18 -23 17 -10 0 -16 6 -16 17 1 9 -3 17 -10 17 -14 0 -130 119 -139 143
-8 23 -29 22 -45 -3 -12 -20 -32 -27 -32 -12 0 5 9 18 21 31 l21 22 -39 34
c-37 33 -61 45 -48 25 17 -27 -14 -2 -95 78 -50 49 -90 97 -91 108 0 18 -1 18
-9 -1 -5 -11 -9 -14 -9 -7 -1 7 -5 10 -11 7 -5 -3 -10 2 -10 12 0 24 -19 43
-42 43 -12 0 -18 7 -18 21 0 15 -5 19 -15 15 -20 -7 -76 27 -103 64 -13 17
-30 29 -40 28 -12 -2 -18 5 -20 24 -3 28 -38 62 -53 52 -4 -2 -29 15 -54 39
-25 24 -45 42 -45 39 0 -2 -7 1 -15 8 -13 11 -13 15 -3 21 10 7 10 9 -2 10 -8
1 -18 1 -22 0 -5 0 -8 5 -8 13 0 8 -10 16 -22 18 -13 2 -22 9 -20 16 1 8 -2
10 -9 7 -6 -4 -19 2 -29 13 -10 11 -24 22 -30 24 -6 2 -12 13 -13 25 0 12 -4
21 -7 21 -19 -2 -29 5 -35 22 -3 11 -13 20 -21 20 -8 0 -14 7 -14 15 0 8 -7
15 -15 15 -23 0 -65 30 -65 46 0 8 -7 14 -17 14 -16 0 -85 47 -91 62 -2 4 -10
8 -18 8 -8 0 -14 7 -14 16 0 8 -4 13 -9 10 -5 -3 -12 1 -15 10 -3 8 -11 12
-17 8 -7 -4 -20 4 -30 17 -12 15 -19 19 -19 10 0 -10 -9 -6 -28 12 -34 32
-101 69 -113 61 -5 -3 -9 -1 -9 4 0 12 -58 38 -184 83 -121 43 -128 45 -100
25 10 -8 16 -18 12 -22 -10 -9 -38 15 -38 32 0 19 -102 64 -253 114 l-67 22
-19 -24 c-11 -12 -23 -20 -27 -16 -4 5 0 16 9 26 16 18 13 20 -85 56 -57 21
-131 49 -166 62 -77 30 -81 30 -76 2 4 -22 4 -22 -5 -3 -14 33 -40 50 -53 37
-15 -15 -28 -15 -28 -1 0 5 6 7 13 3 9 -5 9 -4 1 5 -6 7 -21 13 -33 14 -11 1
-21 5 -21 9 0 4 -4 8 -10 8 -5 0 -7 -7 -4 -15 9 -22 -1 -19 -32 10 -16 15 -64
36 -113 52 -307 93 -603 149 -823 155 -65 2 -118 6 -118 9 0 4 -21 9 -47 12
-27 3 -84 12 -128 19 -112 18 -920 18 -1065 0 -302 -38 -662 -112 -818 -169
-15 -6 -15 -4 2 15 36 42 245 95 615 157 46 8 88 20 93 27 6 10 10 10 16 1 10
-16 134 -1 141 18 4 12 5 12 9 0 4 -11 6 -11 13 0z m-3531 -63 c26 -40 29 -69
15 -137 -7 -36 -23 -133 -35 -216 -11 -82 -30 -204 -40 -270 -11 -66 -32 -203
-46 -305 -14 -102 -30 -210 -35 -240 -4 -30 -13 -84 -18 -120 -41 -283 -53
-365 -62 -435 -5 -44 -14 -107 -19 -140 -36 -229 -73 -482 -108 -740 -23 -165
-51 -358 -62 -430 -11 -71 -24 -170 -30 -220 -6 -49 -15 -117 -20 -150 -11
-69 -37 -268 -44 -337 -3 -26 -2 -49 2 -52 5 -3 28 11 52 31 74 58 179 123
200 123 27 0 25 -17 -2 -31 -72 -38 -278 -205 -278 -225 0 -23 11 -17 101 54
48 37 106 80 130 96 24 16 55 37 69 46 73 49 419 189 468 190 21 0 13 -15 -15
-27 -16 -6 -68 -28 -118 -49 -106 -44 -229 -116 -340 -199 -101 -75 -325 -293
-325 -317 0 -10 2 -18 5 -18 3 0 51 46 108 103 182 184 367 314 570 402 73 32
157 69 187 82 30 14 111 38 180 55 116 28 142 31 350 35 235 5 310 -1 450 -39
360 -96 513 -171 725 -353 122 -105 273 -252 300 -295 12 -19 50 -67 83 -106
33 -39 63 -81 67 -93 3 -12 21 -40 39 -64 43 -57 65 -116 82 -217 7 -47 22
-139 34 -205 21 -124 28 -387 12 -413 -11 -16 -119 -23 -150 -9 -13 6 -30 26
-37 44 -13 30 -17 33 -35 23 -11 -6 -51 -12 -89 -14 -38 -2 -78 -9 -90 -16
-12 -6 -66 -23 -119 -36 -132 -34 -192 -54 -192 -64 0 -5 17 -14 38 -20 53
-14 123 -79 156 -144 l28 -56 -21 -42 c-11 -24 -31 -55 -42 -69 -35 -44 -18
-52 36 -16 28 18 108 64 179 101 181 94 286 157 303 184 9 12 22 22 29 22 34
0 4 -180 -60 -365 -76 -221 -135 -341 -349 -705 -151 -258 -390 -491 -624
-609 -84 -42 -250 -107 -294 -115 -20 -3 -98 -26 -174 -51 -198 -64 -286 -78
-418 -70 -111 7 -172 20 -239 49 -42 18 -48 33 -20 44 10 4 70 40 133 80 63
40 123 78 133 85 80 49 458 306 522 354 43 33 113 85 155 116 43 32 116 98
164 148 75 80 86 95 83 123 -3 31 -3 31 -67 34 -36 2 -69 -2 -74 -7 -6 -6 -29
-11 -52 -11 -22 0 -74 -9 -115 -20 -94 -26 -366 -118 -402 -136 -45 -23 -41 2
6 42 50 41 96 118 96 158 0 16 7 29 18 33 60 20 305 130 395 177 59 31 115 59
124 64 10 5 33 16 51 25 19 9 38 17 44 17 5 0 24 10 41 22 35 25 117 65 190
93 26 10 46 22 44 28 -1 5 -33 17 -70 27 -82 20 -126 58 -169 146 l-30 62 27
61 c15 33 39 68 52 76 66 44 12 31 -442 -102 -27 -8 -83 -23 -123 -34 -41 -10
-77 -21 -82 -24 -7 -5 -327 -98 -460 -135 -121 -33 -245 -69 -290 -84 -25 -8
-99 -31 -165 -51 -293 -88 -960 -306 -996 -326 -27 -14 -37 -4 -78 75 -31 62
-61 86 -61 51 0 -23 46 -110 100 -190 133 -197 348 -418 641 -661 197 -162
337 -247 610 -367 60 -26 83 -47 52 -47 -93 1 -477 149 -610 235 -283 182
-495 399 -665 680 -112 185 -135 219 -146 223 -25 8 -10 -34 49 -137 189 -329
415 -578 693 -764 180 -120 517 -250 681 -262 44 -3 105 -8 135 -12 88 -9 32
-21 -100 -22 -113 -1 -196 11 -310 45 -61 17 -322 129 -415 176 -320 164 -560
369 -754 643 -52 74 -70 83 -69 36 1 -15 -2 -34 -6 -40 -5 -7 -12 -36 -16 -64
-19 -117 -42 -237 -61 -317 -11 -47 -20 -92 -20 -100 -1 -8 -5 -31 -10 -50 -4
-19 -10 -60 -13 -90 -2 -30 -7 -66 -9 -80 -21 -103 -59 -301 -72 -380 -8 -52
-20 -122 -26 -155 -5 -33 -14 -91 -19 -130 -5 -38 -14 -97 -19 -130 -6 -33
-20 -134 -31 -225 -11 -91 -26 -210 -34 -265 -7 -55 -19 -161 -26 -235 -11
-121 -20 -185 -51 -355 -10 -58 -24 -146 -39 -260 -13 -98 -44 -213 -70 -265
-38 -74 -142 -116 -185 -74 -42 43 -48 72 -41 209 4 71 10 171 12 220 5 112
18 223 44 390 11 72 27 186 35 255 16 138 42 297 52 313 3 5 12 71 19 145 8
75 22 172 33 216 11 45 27 124 35 176 9 52 21 124 27 160 6 36 15 85 19 110
41 246 110 814 130 1078 5 67 12 127 15 132 8 13 7 644 -1 775 -7 103 -9 112
-35 136 -30 28 -198 105 -299 137 -62 19 -427 92 -461 92 -22 0 -120 48 -147
73 -12 12 -29 45 -38 73 -14 48 -14 56 1 84 25 49 91 73 196 73 89 -1 225 -25
270 -49 42 -22 164 -44 244 -44 154 0 221 32 303 147 26 36 59 79 73 96 35 38
67 104 122 252 53 141 127 362 127 378 0 7 18 67 39 133 22 67 45 150 51 185
6 35 19 91 30 124 10 33 25 87 33 120 8 33 26 105 40 160 15 55 42 168 62 250
20 83 40 166 45 185 5 19 16 69 25 110 9 41 29 129 45 195 16 66 36 156 45
200 18 83 64 293 90 405 16 69 57 266 81 390 8 41 21 104 30 139 8 35 24 111
34 170 11 58 40 207 66 331 25 124 53 261 60 305 7 44 18 89 23 100 5 11 16
65 25 120 9 55 21 120 26 145 6 25 15 70 20 100 5 30 15 79 21 108 l13 52 56
0 c46 0 58 -4 70 -22z m4777 -44 c-3 -3 -12 -4 -19 -1 -8 3 -5 6 6 6 11 1 17
-2 13 -5z m-567 -34 c0 -5 -4 -10 -10 -10 -5 0 -10 5 -10 10 0 6 5 10 10 10 6
0 10 -4 10 -10z m-30 -20 c0 -5 -4 -10 -10 -10 -5 0 -10 5 -10 10 0 6 5 10 10
10 6 0 10 -4 10 -10z m462 -12 c-7 -7 -12 -8 -12 -2 0 14 12 26 19 19 2 -3 -1
-11 -7 -17z m-42 -28 c0 -5 -7 -10 -16 -10 -8 0 -12 5 -9 10 3 6 10 10 16 10
5 0 9 -4 9 -10z m420 -22 c-11 -12 -23 -18 -27 -14 -5 4 1 14 11 22 30 21 39
17 16 -8z m-2430 8 c0 -2 -7 -9 -15 -16 -12 -10 -15 -10 -15 4 0 9 7 16 15 16
8 0 15 -2 15 -4z m1400 -66 c0 -5 -4 -10 -10 -10 -5 0 -10 5 -10 10 0 6 5 10
10 10 6 0 10 -4 10 -10z m90 -78 c0 -13 -12 -22 -22 -16 -10 6 -1 24 13 24 5
0 9 -4 9 -8z m500 -42 c0 -5 -4 -10 -10 -10 -5 0 -10 5 -10 10 0 6 5 10 10 10
6 0 10 -4 10 -10z m320 -34 c0 -2 -8 -10 -17 -17 -16 -13 -17 -12 -4 4 13 16
21 21 21 13z m-1036 -41 c-4 -8 -13 -15 -21 -15 -13 0 -13 3 -3 15 7 8 16 15
21 15 5 0 6 -7 3 -15z m806 -5 c0 -5 -4 -10 -10 -10 -5 0 -10 5 -10 10 0 6 5
10 10 10 6 0 10 -4 10 -10z m-195 -80 c-3 -5 -11 -10 -16 -10 -6 0 -7 5 -4 10
3 6 11 10 16 10 6 0 7 -4 4 -10z m2005 0 c0 -5 -8 -10 -17 -10 -15 0 -16 2 -3
10 19 12 20 12 20 0z m-730 -15 c7 -9 10 -18 7 -22 -8 -7 -37 15 -37 28 0 14
16 11 30 -6z m400 5 c0 -5 -4 -10 -10 -10 -5 0 -10 5 -10 10 0 6 5 10 10 10 6
0 10 -4 10 -10z m-1260 -14 c0 -3 -4 -8 -10 -11 -5 -3 -10 -1 -10 4 0 6 5 11
10 11 6 0 10 -2 10 -4z m1320 -5 c0 -12 -20 -25 -27 -18 -7 7 6 27 18 27 5 0
9 -4 9 -9z m-100 -11 c0 -5 -4 -10 -10 -10 -5 0 -10 5 -10 10 0 6 5 10 10 10
6 0 10 -4 10 -10z m400 -40 c0 -5 -4 -10 -10 -10 -5 0 -10 5 -10 10 0 6 5 10
10 10 6 0 10 -4 10 -10z m-500 -19 c0 -13 -29 -35 -37 -28 -7 8 15 37 28 37 5
0 9 -4 9 -9z m700 -26 c-7 -9 -15 -13 -18 -10 -3 2 1 11 8 20 7 9 15 13 18 10
3 -2 -1 -11 -8 -20z m-2550 5 c0 -5 -4 -10 -10 -10 -5 0 -10 5 -10 10 0 6 5
10 10 10 6 0 10 -4 10 -10z m-420 -19 c0 -5 -7 -14 -15 -21 -16 -14 -18 -10
-9 14 6 17 24 22 24 7z m1290 -21 c0 -5 -4 -10 -10 -10 -5 0 -10 5 -10 10 0 6
5 10 10 10 6 0 10 -4 10 -10z m1610 -15 c10 -13 10 -19 -5 -35 -10 -11 -21
-20 -25 -20 -6 0 -7 55 -1 68 3 7 20 0 31 -13z m-1570 -15 c0 -5 -2 -10 -4
-10 -3 0 -8 5 -11 10 -3 6 -1 10 4 10 6 0 11 -4 11 -10z m770 -90 c0 -5 -4
-10 -10 -10 -5 0 -10 5 -10 10 0 6 5 10 10 10 6 0 10 -4 10 -10z m650 -64 c0
-3 -4 -8 -10 -11 -5 -3 -10 -1 -10 4 0 6 5 11 10 11 6 0 10 -2 10 -4z m-220
-46 c0 -5 -4 -10 -10 -10 -5 0 -10 5 -10 10 0 6 5 10 10 10 6 0 10 -4 10 -10z
m213 -80 c-16 -28 -33 -39 -33 -23 0 7 41 53 47 53 2 0 -4 -13 -14 -30z m-243
-120 c0 -5 -4 -10 -10 -10 -5 0 -10 5 -10 10 0 6 5 10 10 10 6 0 10 -4 10 -10z
m-2180 -19 c0 -12 -72 -72 -79 -66 -6 6 60 75 71 75 4 0 8 -4 8 -9z m2265 -31
c10 -11 15 -23 12 -27 -8 -7 -47 25 -47 39 0 14 16 9 35 -12z m-1465 -5 c-7
-8 -16 -12 -21 -9 -13 8 -1 24 18 24 13 0 13 -3 3 -15z m1021 -2 c-12 -22 -71
-87 -71 -78 0 7 72 95 77 95 2 0 -1 -8 -6 -17z m-1624 -12 c1 -13 -3 -18 -12
-15 -8 3 -11 12 -8 20 7 20 18 17 20 -5z m-150 -69 c-20 -20 -37 -32 -37 -27
0 16 60 78 68 71 3 -4 -11 -23 -31 -44z m3423 2 c22 -20 40 -42 40 -49 0 -7 7
-18 16 -25 8 -8 19 -21 25 -31 7 -15 6 -17 -6 -13 -8 4 -15 10 -15 14 0 5 -25
36 -55 68 -51 55 -63 72 -50 72 3 0 23 -16 45 -36z m-10 -39 c7 -9 10 -18 7
-22 -8 -7 -37 15 -37 28 0 14 16 11 30 -6z m110 -25 c0 -5 -4 -10 -10 -10 -5
0 -10 5 -10 10 0 6 5 10 10 10 6 0 10 -4 10 -10z m-2970 -30 c0 -5 -4 -10 -10
-10 -5 0 -10 5 -10 10 0 6 5 10 10 10 6 0 10 -4 10 -10z m-910 -50 c0 -5 -4
-10 -10 -10 -5 0 -10 5 -10 10 0 6 5 10 10 10 6 0 10 -4 10 -10z m3145 -40
c-10 -11 -20 -18 -23 -15 -7 6 18 35 31 35 5 0 2 -9 -8 -20z m-3105 -160 c10
-19 10 -20 -9 -8 -22 13 -28 28 -11 28 5 0 14 -9 20 -20z m3860 0 c0 -5 -4
-10 -10 -10 -5 0 -10 5 -10 10 0 6 5 10 10 10 6 0 10 -4 10 -10z m-4050 -25
c0 -2 -10 -10 -22 -16 -21 -11 -22 -11 -9 4 13 16 31 23 31 12z m280 -35 c0
-5 -2 -10 -4 -10 -3 0 -8 5 -11 10 -3 6 -1 10 4 10 6 0 11 -4 11 -10z m1411
-79 c13 -11 20 -23 16 -27 -4 -4 -20 4 -35 19 -30 31 -16 37 19 8z m2696 -103
c29 -33 40 -53 22 -43 -23 13 -59 48 -59 57 0 15 16 8 37 -14z m213 -38 c-28
-36 -50 -51 -50 -34 0 12 75 92 78 83 2 -5 -11 -27 -28 -49z m50 -10 c0 -5 -4
-10 -10 -10 -5 0 -10 5 -10 10 0 6 5 10 10 10 6 0 10 -4 10 -10z m-40 -29 c0
-12 -20 -25 -27 -18 -7 7 6 27 18 27 5 0 9 -4 9 -9z m-2110 -21 c0 -5 -2 -10
-4 -10 -3 0 -8 5 -11 10 -3 6 -1 10 4 10 6 0 11 -4 11 -10z m-355 -79 c10 -17
-12 -21 -25 -6 -10 12 -10 15 3 15 9 0 18 -4 22 -9z m2715 -19 c0 -14 -39 -46
-47 -39 -3 4 2 16 12 27 19 21 35 26 35 12z m-440 -31 c0 -13 -29 -35 -37 -28
-7 8 15 37 28 37 5 0 9 -4 9 -9z m-3472 -12 c-2 -6 -8 -10 -13 -10 -5 0 -11 4
-13 10 -2 6 4 11 13 11 9 0 15 -5 13 -11z m732 -109 c0 -5 -4 -10 -10 -10 -5
0 -10 5 -10 10 0 6 5 10 10 10 6 0 10 -4 10 -10z m3350 -10 c0 -5 -4 -10 -10
-10 -5 0 -10 5 -10 10 0 6 5 10 10 10 6 0 10 -4 10 -10z m40 0 c0 -5 -4 -10
-10 -10 -5 0 -10 5 -10 10 0 6 5 10 10 10 6 0 10 -4 10 -10z m-70 -40 c0 -5
-4 -10 -10 -10 -5 0 -10 5 -10 10 0 6 5 10 10 10 6 0 10 -4 10 -10z m-107 -45
c-3 -9 -8 -14 -10 -11 -3 3 -2 9 2 15 9 16 15 13 8 -4z m-2323 -45 c0 -5 -4
-10 -10 -10 -5 0 -10 5 -10 10 0 6 5 10 10 10 6 0 10 -4 10 -10z m1638 -29 c3
-8 -1 -12 -9 -9 -7 2 -15 10 -17 17 -3 8 1 12 9 9 7 -2 15 -10 17 -17z m-1668
-11 c0 -5 -5 -10 -11 -10 -5 0 -7 5 -4 10 3 6 8 10 11 10 2 0 4 -4 4 -10z
m-2062 -39 c3 -8 -1 -12 -9 -9 -7 2 -15 10 -17 17 -3 8 1 12 9 9 7 -2 15 -10
17 -17z m2021 -18 c-19 -24 -30 -35 -54 -53 -15 -11 -14 -7 5 15 39 46 81 79
49 38z m2351 8 c0 -13 -29 -35 -37 -28 -7 8 15 37 28 37 5 0 9 -4 9 -9z m292
-44 c-17 -17 -35 -28 -38 -24 -4 4 8 23 27 43 19 19 35 30 38 23 2 -6 -10 -25
-27 -42z m-3194 14 c3 -8 -1 -12 -9 -9 -7 2 -15 10 -17 17 -3 8 1 12 9 9 7 -2
15 -10 17 -17z m1306 -6 c3 -8 1 -15 -3 -15 -5 0 -11 7 -15 15 -3 8 -1 15 3
15 5 0 11 -7 15 -15z m-946 -35 c7 -21 -20 -6 -37 21 l-16 24 24 -16 c14 -9
27 -22 29 -29z m2822 -80 c0 -5 -4 -10 -10 -10 -5 0 -10 5 -10 10 0 6 5 10 10
10 6 0 10 -4 10 -10z m65 -50 c16 -16 25 -33 22 -37 -8 -7 -67 45 -67 59 0 16
17 8 45 -22z m-925 -30 c-6 -11 -13 -20 -16 -20 -2 0 0 9 6 20 6 11 13 20 16
20 2 0 0 -9 -6 -20z m-100 -20 c0 -5 -4 -10 -10 -10 -5 0 -10 5 -10 10 0 6 5
10 10 10 6 0 10 -4 10 -10z m610 -10 c0 -5 -4 -10 -10 -10 -5 0 -10 5 -10 10
0 6 5 10 10 10 6 0 10 -4 10 -10z m-4330 -18 c0 -14 -36 -43 -43 -35 -4 3 0
15 10 25 17 19 33 24 33 10z m4375 -32 c10 -11 15 -23 12 -27 -8 -7 -47 25
-47 39 0 14 16 9 35 -12z m-7335 -16 c0 -8 -5 -12 -10 -9 -6 4 -8 11 -5 16 9
14 15 11 15 -7z m6730 8 c0 -14 -79 -86 -87 -79 -4 4 11 25 32 47 38 39 55 49
55 32z m-840 -32 c0 -5 -4 -10 -10 -10 -5 0 -10 5 -10 10 0 6 5 10 10 10 6 0
10 -4 10 -10z m650 0 c0 -5 -4 -10 -10 -10 -5 0 -10 5 -10 10 0 6 5 10 10 10
6 0 10 -4 10 -10z m-3660 -15 c-7 -8 -18 -15 -24 -15 -6 0 -2 7 8 15 25 19 32
19 16 0z m5074 -51 c4 -10 1 -14 -6 -12 -15 5 -23 28 -10 28 5 0 13 -7 16 -16z
m-7569 -4 c-3 -5 -10 -10 -16 -10 -5 0 -9 5 -9 10 0 6 7 10 16 10 8 0 12 -4 9
-10z m5975 -9 c0 -13 -29 -35 -37 -28 -7 8 15 37 28 37 5 0 9 -4 9 -9z m1638
-51 c37 -44 44 -75 10 -42 -27 25 -63 82 -51 82 4 0 23 -18 41 -40z m-4959
-34 c10 -12 8 -13 -8 -9 -12 3 -18 9 -15 14 7 12 10 11 23 -5z m-1144 -37 c13
-20 0 -15 -25 9 -23 22 -23 24 -3 13 12 -6 25 -16 28 -22z m6103 -19 c18 -23
30 -45 28 -48 -6 -6 -85 78 -86 91 0 19 27 -2 58 -43z m-106 3 c27 -24 22 -36
-7 -17 -14 9 -25 20 -25 25 0 14 11 11 32 -8z m58 -43 c0 -5 -4 -10 -10 -10
-5 0 -10 5 -10 10 0 6 5 10 10 10 6 0 10 -4 10 -10z m-1440 -20 c0 -5 -4 -10
-10 -10 -5 0 -10 5 -10 10 0 6 5 10 10 10 6 0 10 -4 10 -10z m1504 -32 c9 -12
13 -24 11 -27 -6 -6 -65 50 -65 61 0 14 37 -10 54 -34z m-3994 -3 c-7 -8 -19
-15 -27 -15 -13 0 -13 3 -3 15 7 8 16 12 21 9 5 -3 9 0 9 7 0 7 3 9 6 6 4 -4
1 -13 -6 -22z m3546 -22 c-7 -7 -26 7 -26 19 0 6 6 6 15 -2 9 -7 13 -15 11
-17z m-4121 -13 c3 -5 2 -10 -4 -10 -5 0 -13 5 -16 10 -3 6 -2 10 4 10 5 0 13
-4 16 -10z m4621 -35 c4 -8 14 -15 23 -15 14 0 14 -2 1 -10 -12 -8 -10 -10 10
-10 19 0 22 -2 11 -9 -12 -8 -13 -14 -3 -35 6 -14 8 -26 3 -26 -11 0 -44 50
-44 67 0 7 -4 13 -8 13 -5 0 -13 9 -19 20 -9 16 -8 20 5 20 9 0 18 -7 21 -15z
m-4096 -36 c0 -5 -4 -9 -10 -9 -5 0 -10 7 -10 16 0 8 5 12 10 9 6 -3 10 -10
10 -16z m4167 -25 c-3 -3 -12 -4 -19 -1 -8 3 -5 6 6 6 11 1 17 -2 13 -5z
m-5870 -121 c101 -136 248 -358 268 -406 14 -33 14 -37 0 -37 -9 0 -21 11 -27
25 -6 14 -16 25 -21 25 -6 0 -8 3 -4 6 6 6 -57 112 -72 124 -4 3 -15 22 -24
42 -10 20 -54 88 -100 150 -91 127 -123 178 -109 178 5 0 45 -48 89 -107z
m2041 95 c-3 -7 -13 -15 -24 -17 -16 -3 -17 -1 -5 13 16 19 34 21 29 4z m3332
2 c0 -5 -4 -10 -10 -10 -5 0 -10 5 -10 10 0 6 5 10 10 10 6 0 10 -4 10 -10z
m526 -11 c10 -11 19 -34 20 -51 1 -17 10 -36 23 -44 11 -8 21 -20 21 -25 0
-19 -41 3 -75 39 -35 37 -44 62 -24 62 6 0 9 9 6 20 -7 26 5 25 29 -1z m-3604
-54 c6 -13 14 -22 19 -20 9 6 24 -14 16 -21 -6 -6 -67 45 -67 57 0 18 21 8 32
-16z m3338 -21 c0 -2 -9 0 -20 6 -11 6 -20 13 -20 16 0 2 9 0 20 -6 11 -6 20
-13 20 -16z m-8190 6 c0 -5 -4 -10 -9 -10 -6 0 -13 5 -16 10 -3 6 1 10 9 10 9
0 16 -4 16 -10z m6675 -11 c-4 -5 -13 -9 -22 -9 -13 0 -13 3 -3 15 13 15 35
11 25 -6z m-6005 -3 c0 -2 -8 -10 -17 -17 -16 -13 -17 -12 -4 4 13 16 21 21
21 13z m3840 -13 c0 -16 -35 -43 -54 -42 -15 0 -17 2 -6 6 8 4 21 14 28 25 13
18 32 25 32 11z m-113 -50 c-18 -18 -27 -15 -31 14 -4 25 16 35 34 18 12 -13
12 -17 -3 -32z m38 37 c3 -5 1 -10 -4 -10 -6 0 -11 5 -11 10 0 6 2 10 4 10 3
0 8 -4 11 -10z m2225 -7 c0 -12 -43 -53 -57 -53 -21 0 -15 17 13 39 27 21 44
27 44 14z m524 -9 c5 -14 4 -15 -9 -4 -17 14 -19 20 -6 20 5 0 12 -7 15 -16z
m-2750 -34 c-10 -4 -23 -5 -28 -2 -13 7 16 21 32 14 13 -4 12 -7 -4 -12z
m4046 -27 c0 -14 -2 -14 -20 2 -11 10 -20 22 -20 27 0 5 9 4 20 -2 11 -6 20
-18 20 -27z m-1650 17 c0 -5 -2 -10 -4 -10 -3 0 -8 5 -11 10 -3 6 -1 10 4 10
6 0 11 -4 11 -10z m-240 -25 c0 -8 -9 -15 -20 -15 -11 0 -20 7 -20 15 0 8 9
15 20 15 11 0 20 -7 20 -15z m400 -5 c0 -5 -4 -10 -10 -10 -5 0 -10 5 -10 10
0 6 5 10 10 10 6 0 10 -4 10 -10z m1588 -12 c-2 -6 -10 -13 -16 -14 -7 -1 -8
0 -2 3 5 2 8 9 4 14 -3 5 0 9 6 9 7 0 10 -5 8 -12z m-1804 -34 c23 -23 76
-101 76 -112 0 -6 -7 -13 -16 -16 -13 -5 -15 -1 -10 17 6 24 2 29 -63 100 -26
28 -14 39 13 11z m-4608 -77 c40 -36 79 -86 144 -182 8 -12 28 -44 43 -71 16
-27 33 -56 38 -64 25 -40 128 -254 125 -258 -11 -10 -29 16 -80 116 -30 59
-70 136 -90 170 -20 35 -36 66 -36 68 0 13 -135 187 -179 232 -30 30 -41 50
-21 37 6 -3 31 -25 56 -48z m2555 17 c12 -14 11 -16 -5 -13 -11 2 -21 10 -24
17 -5 17 13 15 29 -4z m1749 -34 c0 -5 -4 -10 -9 -10 -6 0 -13 5 -16 10 -3 6
1 10 9 10 9 0 16 -4 16 -10z m-230 -10 c0 -10 -116 -110 -128 -110 -3 0 20 27
53 60 58 59 75 70 75 50z m712 -17 c15 -15 28 -31 28 -35 0 -13 -50 22 -61 43
-14 27 0 23 33 -8z m-448 -27 c-3 -15 -8 -25 -11 -23 -2 3 -1 17 3 31 3 15 8
25 11 23 2 -3 1 -17 -3 -31z m2106 25 c0 -12 -20 -25 -27 -18 -7 7 6 27 18 27
5 0 9 -4 9 -9z m-1975 -11 c-3 -5 -11 -10 -16 -10 -6 0 -7 5 -4 10 3 6 11 10
16 10 6 0 7 -4 4 -10z m460 -20 c16 -16 34 -30 40 -30 15 0 50 -38 42 -46 -3
-4 -25 10 -48 30 -24 20 -46 36 -50 36 -5 0 -13 9 -19 20 -16 29 2 24 35 -10z
m205 -10 c0 -5 -4 -10 -10 -10 -5 0 -10 5 -10 10 0 6 5 10 10 10 6 0 10 -4 10
-10z m235 -60 c27 -27 46 -53 42 -57 -8 -7 -107 85 -107 99 0 17 18 6 65 -42z
m-1068 -12 c-3 -8 -6 -5 -6 6 -1 11 2 17 5 13 3 -3 4 -12 1 -19z m1001 -7 c3
-8 -1 -12 -9 -9 -7 2 -15 10 -17 17 -3 8 1 12 9 9 7 -2 15 -10 17 -17z m-1392
-19 c-8 -9 -19 -13 -22 -9 -10 9 16 38 28 31 6 -4 4 -13 -6 -22z m384 -13 c0
-18 -2 -20 -15 -9 -13 11 -13 15 -3 21 18 12 18 12 18 -12z m-20 -24 c0 -12
-19 -12 -23 0 -4 9 -1 12 9 8 7 -3 14 -7 14 -8z m-3549 -81 c38 -82 59 -137
184 -489 65 -181 172 -412 233 -502 79 -117 191 -196 364 -258 51 -18 94 -38
96 -44 5 -16 -10 -14 -82 13 -35 13 -77 26 -92 28 -16 1 -37 10 -46 18 -9 8
-34 24 -55 35 -21 11 -41 25 -45 31 -4 6 -21 17 -38 24 -16 7 -30 18 -30 25 0
7 -28 39 -63 71 -58 55 -72 76 -107 171 -7 17 -23 46 -36 64 -13 18 -24 40
-24 48 0 9 -18 57 -39 106 -21 50 -64 162 -94 250 -99 284 -115 327 -126 338
-6 6 -11 16 -11 22 0 6 -8 29 -19 51 -28 58 -34 84 -21 84 6 0 29 -39 51 -86z
m4459 56 c0 -5 -4 -10 -10 -10 -5 0 -10 5 -10 10 0 6 5 10 10 10 6 0 10 -4 10
-10z m1305 -50 c10 -11 15 -23 12 -27 -8 -7 -47 25 -47 39 0 14 16 9 35 -12z
m-1055 -55 c28 -29 50 -43 60 -40 23 7 51 -26 43 -53 -3 -12 -8 -22 -11 -22
-9 0 -152 143 -152 152 0 17 18 6 60 -37z m-183 29 c-3 -3 -12 -4 -19 -1 -8 3
-5 6 6 6 11 1 17 -2 13 -5z m1013 -66 c0 -5 -9 -4 -20 2 -11 6 -18 15 -14 21
6 11 34 -7 34 -23z m-2900 7 c10 -12 10 -15 -3 -15 -8 0 -20 7 -27 15 -10 12
-10 15 3 15 8 0 20 -7 27 -15z m3138 -68 c12 -11 22 -27 22 -35 0 -18 -45 20
-62 52 -12 22 3 15 40 -17z m86 -3 c4 -10 1 -14 -6 -12 -15 5 -23 28 -10 28 5
0 13 -7 16 -16z m-2484 -14 c0 -5 -2 -10 -4 -10 -3 0 -8 5 -11 10 -3 6 -1 10
4 10 6 0 11 -4 11 -10z m1471 -35 c-1 -15 -24 -12 -29 3 -3 9 2 13 12 10 10
-1 17 -7 17 -13z m-11507 -52 c158 -147 221 -213 261 -278 49 -78 58 -111 76
-273 25 -235 -37 -556 -129 -664 -23 -28 -58 -21 -96 17 -27 27 -41 56 -61
123 -15 48 -38 121 -52 162 -36 106 -100 361 -113 450 -9 56 -9 117 -1 230 19
270 22 290 39 290 8 0 43 -25 76 -57z m10021 47 c-3 -5 -12 -10 -18 -10 -7 0
-6 4 3 10 19 12 23 12 15 0z m1925 -69 c0 -13 -29 -35 -37 -28 -7 8 15 37 28
37 5 0 9 -4 9 -9z m-2122 -57 c-10 -10 -28 6 -28 24 0 15 1 15 17 -1 9 -9 14
-19 11 -23z m-3502 -19 c17 -40 18 -55 4 -55 -9 0 -40 62 -40 81 0 22 22 6 36
-26z m3404 21 c0 -3 -4 -8 -10 -11 -5 -3 -10 -1 -10 4 0 6 5 11 10 11 6 0 10
-2 10 -4z m42 -28 c-7 -7 -12 -8 -12 -2 0 14 12 26 19 19 2 -3 -1 -11 -7 -17z
m188 3 c0 -13 -29 -35 -37 -28 -7 8 15 37 28 37 5 0 9 -4 9 -9z m2640 -12 c0
-5 -4 -9 -10 -9 -5 0 -10 7 -10 16 0 8 5 12 10 9 6 -3 10 -10 10 -16z m-6253
-61 c-2 -7 3 -18 11 -24 10 -7 13 -17 7 -30 -7 -17 -9 -16 -21 11 -16 37 -17
55 -3 55 6 0 9 -6 6 -12z m5523 3 c0 -12 -20 -25 -27 -18 -7 7 6 27 18 27 5 0
9 -4 9 -9z m-5480 -116 c0 -8 -4 -15 -10 -15 -5 0 -10 7 -10 15 0 8 5 15 10
15 6 0 10 -7 10 -15z m5330 -5 c0 -5 -4 -10 -10 -10 -5 0 -10 5 -10 10 0 6 5
10 10 10 6 0 10 -4 10 -10z m288 -17 c-15 -15 -31 -24 -34 -20 -10 10 26 47
45 47 11 0 8 -7 -11 -27z m-223 -33 c16 -16 26 -32 23 -35 -7 -7 -68 43 -68
56 0 17 16 9 45 -21z m473 -6 c-10 -10 -28 6 -28 24 0 15 1 15 17 -1 9 -9 14
-19 11 -23z m-5838 -10 c6 -14 10 -27 10 -30 0 -7 -30 -4 -30 4 0 4 -3 17 -6
30 -9 31 14 28 26 -4z m5532 4 c-6 -6 -15 -8 -19 -4 -4 4 -1 11 7 16 19 12 27
3 12 -12z m78 12 c0 -5 -4 -10 -10 -10 -5 0 -10 5 -10 10 0 6 5 10 10 10 6 0
10 -4 10 -10z m588 -31 c-2 -6 -8 -10 -13 -10 -5 0 -11 4 -13 10 -2 6 4 11 13
11 9 0 15 -5 13 -11z m-6177 -67 c6 -16 5 -22 -6 -22 -8 0 -15 4 -15 9 0 5 -3
17 -7 27 -4 11 -2 15 7 12 7 -2 17 -14 21 -26z m5939 -80 c0 -21 -36 12 -43
40 -5 19 -5 19 19 -3 13 -12 24 -29 24 -37z m-5923 22 c-3 -3 -12 -4 -19 -1
-8 3 -5 6 6 6 11 1 17 -2 13 -5z m7 -46 c-3 -4 -9 -8 -15 -8 -5 0 -9 4 -9 8 0
5 7 9 15 9 8 0 12 -4 9 -9z m5566 -9 c0 -5 -4 -9 -8 -9 -5 0 -9 7 -9 15 0 8 4
12 9 9 4 -3 8 -9 8 -15z m-5553 -35 c-3 -3 -12 -4 -19 -1 -8 3 -5 6 6 6 11 1
17 -2 13 -5z m6 -34 c3 -12 0 -20 -8 -20 -7 0 -15 9 -18 20 -3 12 0 20 8 20 7
0 15 -9 18 -20z m4 -36 c-3 -3 -12 -4 -19 -1 -8 3 -5 6 6 6 11 1 17 -2 13 -5z
m13 -54 c0 -5 -7 -10 -15 -10 -8 0 -15 5 -15 10 0 6 7 10 15 10 8 0 15 -4 15
-10z m3180 -45 c0 -11 -12 -15 -48 -15 -27 0 -84 -3 -127 -7 -64 -5 -77 -4
-73 8 3 10 28 16 79 20 146 11 169 10 169 -6z m104 9 c34 -13 16 -29 -29 -26
-30 3 -45 9 -45 18 0 15 44 19 74 8z m64 -16 c-6 -17 -38 -19 -38 -2 0 8 9 14
21 14 11 0 19 -5 17 -12z m58 -3 c14 -13 12 -15 -15 -15 -21 0 -31 5 -31 15 0
8 7 15 16 15 8 0 22 -7 30 -15z m-3392 -26 c9 -46 7 -79 -4 -79 -13 0 -24 45
-17 70 3 11 1 20 -4 20 -5 0 -9 5 -9 10 0 25 28 7 34 -21z m2906 22 c0 -16
-10 -18 -109 -26 -75 -5 -92 -4 -89 7 7 21 198 39 198 19z m560 -6 c0 -8 -9
-15 -20 -15 -11 0 -20 7 -20 15 0 8 9 15 20 15 11 0 20 -7 20 -15z m60 -11 c0
-10 -7 -14 -22 -12 -32 5 -35 28 -4 28 17 0 26 -5 26 -16z m153 -16 c20 -5 37
-15 37 -22 0 -11 -8 -12 -37 -5 -21 5 -54 12 -73 15 -53 7 -70 14 -70 28 0 13
44 8 143 -16z m-985 10 c-7 -20 -48 -23 -48 -4 0 11 9 16 26 16 16 0 24 -5 22
-12z m-58 -13 c0 -10 -10 -15 -30 -15 -29 0 -38 9 -23 23 13 13 53 7 53 -8z
m-80 -10 c0 -8 -7 -15 -15 -15 -8 0 -15 7 -15 15 0 8 7 15 15 15 8 0 15 -7 15
-15z m-60 -10 c0 -8 -9 -15 -20 -15 -20 0 -26 11 -13 23 12 13 33 7 33 -8z
m-50 -10 c0 -8 -7 -15 -15 -15 -8 0 -15 7 -15 15 0 8 7 15 15 15 8 0 15 -7 15
-15z m1344 0 c20 -8 36 -13 36 -11 0 3 19 -2 43 -10 23 -9 103 -35 178 -59
133 -42 375 -138 393 -156 31 -29 -50 -11 -132 30 -20 10 -73 31 -117 46 -44
16 -84 31 -90 35 -5 4 -48 19 -95 33 -47 15 -128 40 -180 56 -52 16 -96 34
-98 40 -5 15 19 14 62 -4z m-1384 -5 c0 -5 -17 -14 -37 -19 -21 -5 -64 -16
-95 -25 -37 -9 -60 -11 -64 -5 -8 14 -9 14 81 37 92 23 115 26 115 12z m3635
-30 c3 -5 2 -10 -4 -10 -5 0 -13 5 -16 10 -3 6 -2 10 4 10 5 0 13 -4 16 -10z
m-6026 -42 c-1 -18 2 -50 6 -70 6 -30 5 -38 -7 -38 -11 0 -17 15 -22 53 -9 76
-8 87 9 87 10 0 15 -10 14 -32z m2121 8 c0 -8 -13 -16 -30 -18 -20 -3 -30 0
-30 8 0 11 9 15 53 23 4 0 7 -5 7 -13z m3950 -6 c0 -5 -4 -10 -10 -10 -5 0
-10 5 -10 10 0 6 5 10 10 10 6 0 10 -4 10 -10z m143 -17 c-7 -3 -13 -12 -13
-21 0 -12 -3 -13 -12 -4 -9 9 -8 15 8 26 10 8 21 12 24 9 3 -3 -1 -8 -7 -10z
m-4195 -5 c-6 -18 -28 -21 -28 -4 0 9 7 16 16 16 9 0 14 -5 12 -12z m4082 2
c0 -5 -4 -10 -10 -10 -5 0 -10 5 -10 10 0 6 5 10 10 10 6 0 10 -4 10 -10z
m-4234 -57 c-10 -10 -19 5 -10 18 6 11 8 11 12 0 2 -7 1 -15 -2 -18z m-56 -6
c0 -7 -24 -21 -52 -31 -29 -10 -59 -21 -65 -23 -7 -3 -13 2 -13 11 0 9 1 16 3
16 1 0 27 9 57 20 66 23 70 24 70 7z m-783 -59 c-3 -8 -6 -5 -6 6 -1 11 2 17
5 13 3 -3 4 -12 1 -19z m641 10 c-4 -12 -46 -27 -116 -42 -25 -6 -32 -4 -32 8
0 8 8 15 18 15 9 -1 37 6 62 14 56 19 73 20 68 5z m-558 -18 c8 -5 12 -12 8
-15 -9 -9 -48 4 -48 16 0 12 21 11 40 -1z m84 -16 c23 -9 20 -24 -4 -24 -11 0
-20 7 -20 15 0 17 2 18 24 9z m306 -9 c0 -8 -7 -15 -15 -15 -8 0 -15 7 -15 15
0 8 7 15 15 15 8 0 15 -7 15 -15z m-1480 -30 c0 -16 -6 -25 -15 -25 -9 0 -15
9 -15 25 0 16 6 25 15 25 9 0 15 -9 15 -25z m4557 -25 c54 -28 105 -54 113
-59 8 -5 72 -44 142 -86 69 -42 132 -82 138 -90 7 -8 18 -15 25 -15 8 0 15 -3
17 -8 2 -4 35 -34 73 -66 39 -32 97 -81 130 -108 93 -79 555 -545 555 -561 0
-16 44 -60 52 -51 3 3 9 0 14 -7 4 -8 3 -10 -4 -5 -21 13 -13 -3 37 -77 44
-65 181 -316 181 -331 0 -16 -28 -3 -40 19 -7 14 -17 25 -22 25 -5 0 -6 5 -3
10 3 6 2 10 -4 10 -6 0 -8 6 -5 14 5 14 -29 72 -51 88 -5 4 -11 19 -12 33 -2
23 -95 162 -147 218 -13 14 -21 28 -18 31 3 3 0 6 -6 6 -6 0 -18 13 -27 29 -8
16 -39 55 -70 88 -30 32 -55 61 -55 66 0 4 -7 7 -15 7 -9 0 -20 11 -25 25 -5
13 -26 33 -48 44 -21 11 -55 41 -76 68 -59 76 -163 181 -264 265 -50 43 -95
78 -98 78 -3 0 -19 13 -36 29 -17 16 -61 48 -97 71 -36 23 -97 62 -136 86 -38
24 -75 44 -81 44 -7 0 -20 10 -28 22 -9 12 -16 19 -16 15 0 -4 -26 7 -57 25
-32 17 -79 42 -105 55 -43 21 -63 43 -39 43 5 0 54 -23 108 -50z m-1277 -75
c0 -13 -38 -15 -280 -15 -242 0 -280 2 -280 15 0 13 38 15 280 15 242 0 280
-2 280 -15z m-633 -21 c-12 -12 -87 -16 -87 -6 0 11 15 16 65 24 19 4 33 -8
22 -18z m61 14 c-7 -20 -48 -23 -48 -4 0 11 9 16 26 16 16 0 24 -5 22 -12z
m662 2 c0 -5 7 -7 15 -4 43 17 385 -70 385 -98 0 -11 -4 -11 -79 12 -86 25
-313 70 -356 70 -33 0 -51 11 -38 24 10 10 73 7 73 -4z m-820 -24 c0 -7 -11
-16 -25 -18 -26 -5 -36 16 -12 25 23 10 37 7 37 -7z m1284 -112 c4 -12 2 -12
-14 -4 -11 6 -20 15 -20 20 0 14 28 1 34 -16z m-1644 1 c0 -2 -9 -9 -20 -15
-12 -6 -20 -7 -20 -1 0 5 8 12 18 14 9 3 18 5 20 6 1 0 2 -1 2 -4z m-195 -94
c-8 -14 -25 -14 -25 0 0 5 5 7 10 4 6 -3 10 -1 10 6 0 7 3 10 6 6 3 -3 3 -10
-1 -16z m1985 -21 c0 -5 -4 -10 -10 -10 -5 0 -10 5 -10 10 0 6 5 10 10 10 6 0
10 -4 10 -10z m88 -28 c2 -7 -3 -12 -12 -12 -9 0 -16 7 -16 16 0 17 22 14 28
-4z m-4068 -7 c0 -8 -7 -15 -15 -15 -8 0 -15 7 -15 15 0 8 7 15 15 15 8 0 15
-7 15 -15z m1833 -34 c-20 -24 -43 -28 -43 -6 0 16 34 38 44 28 3 -3 6 0 7 8
0 9 2 10 5 2 3 -6 -3 -21 -13 -32z m2333 14 c10 -8 29 -15 40 -15 22 0 379
-176 469 -230 28 -17 73 -41 102 -54 29 -14 58 -30 65 -35 7 -6 43 -34 81 -62
37 -27 67 -54 67 -60 0 -5 8 -12 18 -16 23 -9 172 -155 172 -170 0 -7 9 -17
19 -23 11 -5 23 -20 26 -31 4 -12 41 -61 82 -108 41 -47 100 -124 131 -171 64
-95 63 -94 97 -135 25 -29 29 -39 26 -61 -1 -6 19 -53 43 -105 82 -174 166
-394 166 -436 0 -7 -7 -13 -15 -13 -8 0 -15 7 -15 15 0 8 5 15 12 15 7 0 6 5
-4 13 -8 6 -25 44 -37 82 -13 39 -36 99 -53 135 -16 35 -38 85 -49 111 -36 94
-138 286 -195 370 -82 120 -244 309 -266 309 -10 0 -18 7 -18 15 0 8 -9 19
-20 25 -11 6 -20 18 -20 27 0 40 -260 244 -441 346 -147 83 -361 190 -419 210
-77 27 -120 47 -120 57 0 15 34 12 56 -5z m-6476 -45 c0 -5 -11 -10 -25 -10
-27 0 -33 -18 -13 -38 10 -10 6 -11 -19 -6 -18 3 -33 2 -37 -5 -12 -18 -26
-12 -26 10 l0 21 -36 -21 c-42 -25 -44 -25 -44 -6 0 8 4 15 9 15 5 0 12 9 16
19 5 17 14 19 66 17 33 -1 62 1 65 6 7 11 44 10 44 -2z m200 -16 c0 -9 -11
-14 -30 -14 -36 0 -39 13 -7 27 25 12 37 8 37 -13z m2094 -17 c-3 -9 -10 -17
-15 -17 -11 0 -12 34 -2 43 11 12 24 -8 17 -26z m1731 14 c-3 -6 -11 -11 -17
-11 -6 0 -6 6 2 15 14 17 26 13 15 -4z m-3725 -1 c0 -5 -7 -10 -16 -10 -8 0
-12 5 -9 10 3 6 10 10 16 10 5 0 9 -4 9 -10z m-670 -39 c0 -13 -29 -35 -37
-28 -7 8 15 37 28 37 5 0 9 -4 9 -9z m593 2 c-7 -2 -13 -11 -13 -19 0 -8 -7
-14 -15 -14 -8 0 -15 7 -15 16 0 8 4 13 9 9 5 -3 12 -1 16 5 3 5 12 10 18 9 9
0 9 -2 0 -6z m3714 -15 c-3 -8 -6 -5 -6 6 -1 11 2 17 5 13 3 -3 4 -12 1 -19z
m-3985 -33 c4 -5 15 -5 30 2 58 28 70 23 48 -18 -8 -14 -7 -19 3 -19 25 0 57
-44 50 -69 -5 -18 -11 -22 -32 -18 -31 6 -61 -8 -61 -28 0 -15 -16 -19 -54
-15 -10 1 -34 -6 -52 -16 -26 -14 -33 -24 -29 -39 3 -11 2 -15 -1 -9 -3 7 -14
9 -26 6 -14 -3 -19 -1 -14 6 3 6 2 13 -3 16 -5 4 -12 2 -16 -4 -3 -5 -15 -10
-26 -10 -14 0 -19 -7 -19 -25 0 -18 -7 -26 -24 -31 -14 -3 -29 -3 -35 0 -5 4
-15 -3 -21 -14 -6 -11 -18 -20 -27 -20 -9 0 -24 -6 -32 -14 -20 -17 -112 -46
-145 -46 -14 0 -28 -4 -31 -10 -3 -5 -16 -10 -27 -10 -21 0 -88 -17 -178 -46
-25 -8 -65 -14 -90 -14 -25 -1 -63 -7 -85 -15 -22 -8 -60 -17 -85 -21 -25 -3
-54 -12 -65 -18 -11 -7 -47 -18 -80 -25 -33 -7 -76 -19 -95 -27 -19 -7 -53
-16 -75 -20 -22 -4 -48 -11 -58 -16 -21 -11 -180 -54 -257 -70 -30 -7 -59 -18
-64 -26 -6 -11 -10 -11 -16 -2 -9 15 -50 -8 -50 -28 0 -20 -21 -10 -39 18 -15
22 -15 24 1 18 9 -4 18 -2 20 3 2 6 12 11 23 13 13 2 19 10 17 21 -2 9 7 26
19 38 l22 20 -34 29 c-31 26 -40 28 -99 26 -55 -3 -65 0 -68 15 -2 10 3 17 13
17 12 0 15 5 10 21 -7 20 -5 21 30 15 36 -7 37 -6 33 18 -4 18 -1 26 9 26 8 0
21 7 29 15 22 22 28 19 48 -22 16 -34 19 -36 26 -18 5 13 2 23 -8 29 -13 7
-11 11 9 22 35 19 47 17 51 -8 2 -13 11 -24 21 -26 21 -4 23 21 3 41 -13 12
-10 16 18 29 30 15 34 15 57 -3 18 -14 20 -19 7 -19 -9 0 -18 6 -21 13 -4 10
-7 10 -18 0 -11 -11 -10 -13 4 -13 10 0 17 -8 17 -20 0 -11 2 -20 5 -20 11 0
45 41 40 49 -8 14 39 21 75 11 27 -8 37 -6 53 7 18 17 19 17 28 0 14 -24 37
-21 41 6 3 19 10 22 53 25 33 2 57 10 71 23 19 17 22 18 34 4 7 -8 16 -15 21
-15 14 0 11 38 -3 44 -22 8 23 36 58 36 18 0 39 7 48 15 8 8 19 15 25 15 6 0
18 17 28 38 l17 37 4 -33 c5 -48 -3 -62 -38 -62 -16 0 -30 -4 -30 -9 0 -5 -3
-16 -6 -25 -5 -12 1 -16 24 -16 26 0 29 3 25 21 -6 20 -3 21 30 15 30 -6 40
-3 58 15 18 18 25 20 40 10 24 -14 29 -14 29 3 0 8 9 18 21 21 16 5 18 10 8
21 -9 12 -5 14 27 16 74 3 80 4 92 12 8 5 18 1 27 -10 11 -16 16 -17 41 -5 28
12 28 13 9 27 -10 8 -16 14 -12 14 4 0 2 11 -3 25 -7 17 -6 25 2 25 6 0 19 10
29 22 18 19 20 20 37 5 11 -10 31 -15 55 -13 28 3 41 -2 51 -16 11 -15 21 -18
48 -13 30 6 34 10 30 31 -6 30 17 32 43 4 25 -27 34 -25 32 6 -1 15 4 29 11
31 6 3 12 -1 12 -9 0 -7 8 -18 18 -24 14 -9 17 -7 18 12 1 15 -4 24 -13 24 -8
0 -12 4 -9 8 6 10 57 9 96 -2 14 -3 43 0 65 8 40 14 56 10 77 -19z m242 3 c31
-18 56 -35 56 -38 0 -3 -25 -6 -55 -7 -54 -1 -55 -1 -55 26 0 15 -5 32 -12 39
-22 22 9 13 66 -20z m-89 4 c-3 -3 -11 0 -18 7 -9 10 -8 11 6 5 10 -3 15 -9
12 -12z m3783 -8 c-2 -23 -38 -57 -38 -37 0 4 -4 2 -9 -5 -6 -10 -10 -10 -21
2 -10 13 -9 17 6 22 11 4 27 15 37 26 24 24 27 23 25 -8z m-3758 -18 c0 -3 -4
-8 -10 -11 -5 -3 -10 -1 -10 4 0 6 5 11 10 11 6 0 10 -2 10 -4z m-30 -26 c0
-5 -4 -10 -10 -10 -5 0 -10 5 -10 10 0 6 5 10 10 10 6 0 10 -4 10 -10z m2197
4 c-3 -3 -12 -4 -19 -1 -8 3 -5 6 6 6 11 1 17 -2 13 -5z m11 -42 c4 -28 99
-122 122 -122 5 0 15 -9 22 -20 7 -11 21 -20 30 -20 10 0 18 -4 18 -10 0 -5
16 -17 35 -26 19 -9 35 -20 35 -25 0 -5 15 -15 33 -22 17 -8 43 -24 57 -35 66
-57 142 -94 343 -166 26 -10 47 -22 47 -27 0 -6 5 -7 10 -4 6 3 10 1 10 -5 0
-16 -29 -8 -150 36 -183 68 -313 143 -489 284 -84 67 -151 145 -151 176 0 23
25 11 28 -14z m1463 5 c-1 -4 -3 -6 -4 -4 -2 1 -11 -4 -21 -12 -9 -8 -19 -11
-23 -7 -4 3 2 13 13 21 19 14 36 16 35 2z m-4701 -57 c0 -6 10 -8 23 -5 23 6
57 -18 44 -31 -12 -12 -82 12 -85 29 -2 9 1 17 7 17 6 0 11 -5 11 -10z m4640
-9 c0 -15 -28 -33 -40 -26 -8 5 -8 11 1 21 13 15 39 19 39 5z m-3457 -8 c-7
-2 -21 -2 -30 0 -10 3 -4 5 12 5 17 0 24 -2 18 -5z m3390 -29 c9 -9 -16 -44
-30 -44 -17 0 -17 37 0 43 18 8 23 8 30 1z m-4861 -54 c-12 -12 -22 -25 -22
-30 0 -14 -27 -12 -34 3 -3 8 -11 5 -25 -12 -18 -20 -22 -21 -27 -7 -10 27 4
46 33 46 15 0 35 5 43 10 8 5 24 10 34 10 19 0 19 -1 -2 -20z m4788 6 c0 -25
-12 -46 -26 -46 -17 0 -17 1 -4 34 10 28 30 35 30 12z m-3565 -26 c-3 -5 -13
-10 -21 -10 -8 0 -12 5 -9 10 3 6 13 10 21 10 8 0 12 -4 9 -10z m3515 -10 c0
-22 -25 -60 -36 -56 -16 6 -54 -36 -54 -60 0 -22 -96 -122 -107 -111 -3 4 5
20 19 35 14 15 37 47 51 72 47 80 127 156 127 120z m2011 -132 c0 -10 2 -10 6
0 7 17 43 15 43 -3 0 -18 17 -20 22 -4 4 13 30 7 141 -33 42 -15 57 -25 57
-39 0 -11 5 -19 10 -19 6 0 10 5 10 10 0 17 16 11 44 -17 21 -21 29 -24 36
-14 4 8 12 11 17 8 16 -10 66 -19 113 -21 55 -2 160 -35 167 -52 2 -7 11 -10
19 -7 8 3 21 0 29 -7 8 -7 15 -9 15 -6 0 10 96 -42 151 -81 26 -18 52 -33 57
-33 6 0 16 -9 22 -21 7 -11 14 -18 17 -15 9 8 72 -44 78 -65 4 -10 14 -19 24
-19 14 0 87 -59 266 -215 24 -21 51 -35 68 -35 15 0 27 -3 28 -7 3 -35 12 -51
38 -73 17 -14 42 -41 55 -60 58 -79 140 -206 138 -212 -1 -5 3 -8 8 -8 13 0
109 -195 137 -280 27 -79 56 -211 48 -218 -2 -3 -1 -10 4 -16 15 -19 22 -64
10 -68 -6 -2 -8 -14 -4 -31 9 -32 25 -37 19 -4 -2 12 -1 15 2 7 4 -8 11 -23
16 -34 8 -14 7 -17 -4 -10 -10 6 -11 5 -1 -8 7 -8 10 -18 6 -21 -3 -4 -1 -7 5
-7 23 0 32 -108 32 -374 0 -252 -10 -386 -30 -386 -3 0 -4 -14 -2 -31 3 -22 1
-30 -7 -25 -7 4 -9 2 -5 -8 9 -23 -35 -152 -84 -246 -63 -119 -160 -289 -188
-327 -13 -17 -24 -35 -24 -39 0 -4 -19 -30 -43 -58 -24 -28 -59 -73 -79 -101
-21 -27 -58 -68 -84 -90 -26 -22 -66 -56 -88 -76 -80 -70 -178 -140 -239 -172
-34 -18 -76 -41 -92 -52 -81 -54 -110 -68 -280 -134 -127 -49 -221 -78 -253
-77 -17 1 -28 -3 -25 -8 4 -5 -12 -7 -35 -3 -28 3 -40 2 -35 -5 4 -8 -7 -9
-35 -4 -29 4 -42 3 -42 -5 0 -8 -19 -10 -62 -6 -42 4 -55 3 -38 -3 24 -9 -223
-5 -320 5 -25 3 -51 1 -58 -4 -12 -7 -54 -3 -132 13 -14 3 -53 11 -87 17 -36
7 -59 17 -56 22 4 6 -6 8 -25 4 -17 -4 -34 -2 -37 2 -3 5 -13 8 -22 7 -10 -2
-33 1 -53 6 -19 5 -52 11 -74 13 -21 2 -41 7 -45 12 -3 4 -26 10 -51 11 -24 2
-58 11 -75 20 -16 9 -32 16 -35 17 -19 2 -69 29 -65 35 3 5 -4 6 -15 3 -11 -3
-20 -1 -20 5 0 5 -12 13 -26 16 -15 4 -52 27 -83 50 -59 45 -227 156 -236 156
-4 0 -25 20 -47 45 -23 25 -46 45 -53 45 -6 0 -18 11 -25 25 -7 13 -16 24 -19
23 -19 -2 -31 4 -31 15 0 6 -18 31 -40 54 -26 29 -38 49 -35 64 3 17 0 20 -16
16 -23 -6 -84 42 -92 73 -5 18 -4 19 16 5 12 -8 30 -15 40 -15 14 0 10 7 -16
30 -36 31 -57 38 -57 18 0 -6 -9 -3 -20 7 -11 10 -20 24 -20 32 0 7 -6 16 -14
19 -8 3 -12 12 -9 20 3 8 -1 14 -8 14 -7 0 -9 3 -6 7 4 3 -2 12 -12 20 -11 7
-23 27 -26 45 -4 18 -11 39 -16 48 -4 8 -18 38 -31 65 -13 28 -30 56 -38 62
-13 11 -13 14 -1 22 11 7 10 11 -8 20 -23 13 -29 32 -8 27 6 -1 9 -1 4 1 -4 3
-4 10 0 16 4 6 0 8 -9 4 -23 -8 -30 3 -13 19 18 18 9 49 -10 34 -13 -11 -25
-4 -25 17 0 7 7 13 15 13 21 0 19 23 -5 51 -17 21 -19 22 -20 6 0 -10 5 -15
10 -12 12 7 12 3 3 -21 -10 -27 -32 43 -25 84 4 26 1 32 -13 32 -12 0 -16 6
-12 20 3 11 1 18 -4 14 -5 -3 -9 4 -9 15 0 13 7 21 16 21 13 0 14 3 5 13 -6 8
-9 23 -6 35 2 12 -1 22 -6 22 -6 0 -7 27 -4 71 5 54 3 74 -7 80 -10 7 -10 9 2
9 13 0 13 1 0 10 -12 8 -13 13 -2 30 6 11 12 37 12 59 0 22 -6 42 -12 45 -10
5 -10 7 0 12 15 7 17 164 2 164 -5 0 -10 16 -10 35 0 19 5 35 10 35 6 0 10 9
10 20 0 11 -4 20 -10 20 -5 0 -10 16 -10 35 0 19 5 35 10 35 6 0 10 9 10 20 0
11 -5 20 -11 20 -5 0 -8 4 -5 9 3 5 8 26 11 47 3 22 8 45 11 53 2 8 -1 18 -8
23 -10 6 -10 10 2 18 8 5 10 10 3 10 -15 0 -4 40 11 40 8 0 8 2 0 8 -14 9 10
133 29 147 16 12 29 55 16 55 -5 0 -9 5 -9 10 0 6 7 10 15 10 8 0 15 5 15 10
0 6 -4 10 -9 10 -5 0 -8 12 -5 26 5 26 56 145 74 174 6 8 18 31 27 50 10 19
23 42 29 50 7 8 14 22 16 30 6 27 59 101 69 95 5 -3 6 0 3 8 -3 9 19 40 55 78
34 35 61 70 61 77 0 7 8 16 17 19 23 9 53 40 53 56 0 16 54 70 62 62 3 -4 21
10 40 29 19 20 38 36 42 36 11 0 90 54 99 67 4 7 24 20 45 30 20 9 43 25 49
34 7 9 24 20 38 23 14 4 25 11 25 16 0 6 7 10 15 10 14 0 34 9 75 32 8 4 26
13 39 18 13 6 53 25 90 44 73 36 249 97 351 121 80 18 80 18 80 0 0 -8 -5 -15
-12 -15 -6 0 -8 -3 -5 -7 4 -3 17 -1 30 5 12 6 81 16 152 22 72 6 131 15 133
20 2 5 23 7 48 3 30 -4 44 -2 44 6 0 16 120 15 121 -1z m-2257 -113 c4 -11 -1
-15 -19 -15 -24 0 -32 10 -18 23 11 12 31 8 37 -8z m-5234 -16 c0 -6 -4 -7
-10 -4 -5 3 -10 11 -10 16 0 6 5 7 10 4 6 -3 10 -11 10 -16z m5160 -18 c0 -12
-20 -25 -27 -18 -7 7 6 27 18 27 5 0 9 -4 9 -9z m-992 -439 c6 -20 -27 -13
-38 8 -9 17 -8 19 12 11 12 -4 24 -13 26 -19z m6155 -30 c14 -33 77 -302 77
-332 0 -5 -6 -10 -14 -10 -8 0 -16 14 -19 33 -12 66 -28 145 -50 245 -25 107
-22 128 6 64z m-5974 -54 c20 -13 88 -48 152 -79 112 -55 219 -136 192 -146
-19 -7 -73 26 -74 45 0 12 -52 43 -171 102 -176 88 -248 129 -248 142 0 9 99
-34 149 -64z m-3479 -193 c20 -24 5 -28 -21 -6 -19 16 -20 20 -8 21 9 0 22 -7
29 -15z m9570 -307 c18 -106 35 -205 37 -220 4 -21 1 -28 -10 -28 -10 0 -17
15 -22 48 -3 26 -20 119 -36 207 -33 184 -33 185 -16 185 10 0 23 -55 47 -192z
m-5735 91 c-15 -56 -19 -63 -33 -58 -13 6 18 109 33 109 11 0 11 -10 0 -51z
m-25 -109 c0 -5 -7 -10 -15 -10 -8 0 -15 5 -15 10 0 6 7 10 15 10 8 0 15 -4
15 -10z m5383 -122 c23 -171 40 -385 33 -403 -14 -38 -24 -6 -31 98 -6 102
-25 277 -41 385 -5 33 -4 42 8 42 12 0 19 -28 31 -122z m-5393 72 c0 -5 -7
-10 -15 -10 -8 0 -15 5 -15 10 0 6 7 10 15 10 8 0 15 -4 15 -10z m-13 -69 c-3
-15 -9 -51 -13 -80 -4 -35 -11 -51 -21 -51 -12 0 -14 8 -10 33 3 17 9 53 13
80 4 32 11 47 21 47 12 0 14 -7 10 -29z m5833 -171 c0 -20 -5 -30 -15 -30 -10
0 -15 10 -15 30 0 20 5 30 15 30 10 0 15 -10 15 -30z m-5862 -2 c-5 -32 -28
-35 -28 -4 0 17 5 26 16 26 10 0 14 -7 12 -22z m-8 -53 c0 -8 -7 -15 -15 -15
-8 0 -15 7 -15 15 0 8 7 15 15 15 8 0 15 -7 15 -15z m5887 -91 c15 -130 16
-194 2 -194 -6 0 -4 -6 4 -14 10 -10 16 -54 20 -152 11 -219 9 -316 -5 -312
-9 3 -14 30 -15 79 -4 124 -25 513 -29 534 -2 11 -7 53 -11 94 -5 61 -4 73 8
69 10 -3 18 -35 26 -104z m-5899 29 c-5 -25 -28 -28 -28 -4 0 12 6 21 16 21 9
0 14 -7 12 -17z m-8 -64 c0 -27 -2 -29 -15 -15 -23 22 -19 35 13 45 1 1 2 -13
2 -30z m-10 -84 c0 -33 -4 -45 -15 -45 -19 0 -21 55 -2 75 17 20 17 20 17 -30z
m5523 -76 c15 -134 2 -390 -27 -534 -14 -71 -26 -131 -26 -132 0 -2 -7 -3 -15
-3 -20 0 -19 19 1 27 10 3 12 8 5 12 -7 5 -3 42 11 116 19 94 22 145 23 353 0
157 4 241 10 239 6 -2 14 -37 18 -78z m442 -537 c7 -23 9 -42 5 -42 -14 0 -30
26 -36 60 -10 49 16 34 31 -18z m-5968 -38 c-3 -3 -12 -4 -19 -1 -8 3 -5 6 6
6 11 1 17 -2 13 -5z m3 -34 c0 -11 -7 -20 -15 -20 -8 0 -15 9 -15 20 0 11 7
20 15 20 8 0 15 -9 15 -20z m6008 -13 c12 -18 22 -39 22 -45 0 -22 -20 -12
-32 16 -7 15 -18 35 -26 45 -13 14 -13 17 -1 17 8 0 24 -15 37 -33z m-5996
-62 c5 -40 -16 -50 -26 -12 -9 35 -7 47 8 47 8 0 15 -14 18 -35z m5448 -4 c0
-20 -20 -61 -30 -61 -14 0 -13 26 2 50 13 21 28 27 28 11z m594 -28 c25 -49
36 -103 21 -103 -14 0 -49 95 -40 110 3 4 -1 11 -7 13 -10 4 -10 6 -1 6 7 1
19 -11 27 -26z m-6034 -28 c0 -8 -5 -15 -11 -15 -5 0 -8 4 -5 9 4 5 0 12 -6
14 -8 3 -6 6 5 6 9 1 17 -6 17 -14z m5414 -42 c-3 -16 -12 -41 -20 -58 -9 -16
-18 -41 -20 -54 -7 -33 -120 -312 -156 -385 -16 -32 -27 -60 -24 -64 3 -3 0
-10 -8 -16 -8 -6 -37 -56 -66 -111 -29 -55 -58 -107 -64 -115 -7 -8 -18 -28
-26 -45 -8 -16 -23 -39 -33 -49 -9 -11 -15 -27 -12 -36 3 -10 -5 -20 -25 -28
-19 -9 -30 -21 -30 -33 0 -12 -13 -27 -30 -37 -16 -9 -30 -25 -30 -34 0 -9 -9
-19 -19 -23 -20 -6 -71 -66 -71 -83 0 -5 -18 -25 -40 -43 -85 -71 -215 -195
-222 -211 -4 -9 -20 -23 -35 -31 -15 -8 -40 -26 -54 -38 -51 -45 -180 -134
-262 -181 -45 -25 -90 -53 -99 -61 -9 -9 -19 -13 -22 -9 -3 3 -6 0 -6 -7 0 -7
-4 -9 -10 -6 -5 3 -10 2 -10 -2 0 -5 -8 -9 -17 -10 -10 -1 -45 -14 -78 -28
-33 -15 -85 -36 -115 -47 -30 -11 -68 -26 -85 -33 -102 -45 -444 -129 -699
-171 -84 -14 -151 -16 -425 -11 -307 5 -371 10 -371 26 0 4 159 5 353 3 413
-5 448 -1 840 93 107 25 284 78 322 95 11 5 56 23 100 40 203 80 408 199 579
339 147 119 478 471 567 602 58 85 195 356 264 519 31 74 63 150 71 168 9 18
17 42 19 53 2 12 9 27 16 35 6 8 9 14 5 14 -4 0 0 13 9 30 8 16 15 32 15 35
-1 28 2 35 14 35 11 0 13 -8 10 -27z m-5407 11 c-3 -3 -12 -4 -19 -1 -8 3 -5
6 6 6 11 1 17 -2 13 -5z m6063 -68 c0 -2 3 -11 6 -20 4 -10 1 -16 -9 -16 -8 0
-17 9 -20 20 -3 13 0 20 9 20 8 0 14 -2 14 -4z m-6365 -76 c3 -5 1 -10 -4 -10
-6 0 -11 5 -11 10 0 6 2 10 4 10 3 0 8 -4 11 -10z m50 -70 c9 -16 11 -30 6
-30 -10 0 -26 19 -34 43 -11 29 11 19 28 -13z m6319 5 c-6 -16 -24 -21 -24 -7
0 11 11 22 21 22 5 0 6 -7 3 -15z m-14 -51 c0 -9 -23 -71 -51 -138 -79 -187
-155 -377 -169 -421 -7 -22 -28 -72 -46 -112 -39 -82 -77 -116 -169 -152 -57
-23 -105 -59 -105 -80 0 -16 -99 -118 -120 -124 -29 -8 -24 9 10 33 17 12 49
47 72 78 46 65 82 102 98 102 6 0 18 4 28 8 9 5 38 19 64 32 46 22 93 79 85
103 -2 6 3 18 11 28 8 9 40 83 72 165 31 82 84 212 117 289 33 77 65 155 73
173 13 34 30 43 30 16z m-5922 -54 c15 -43 18 -60 9 -60 -7 0 -23 27 -35 60
-15 43 -18 60 -9 60 7 0 23 -27 35 -60z m-303 -52 c7 -18 11 -35 8 -38 -7 -7
-43 40 -43 56 0 26 21 14 35 -18z m333 -30 c16 -16 16 -51 0 -46 -13 5 -31 58
-19 58 4 0 12 -5 19 -12z m-303 -44 c0 -10 5 -22 10 -26 6 -5 5 -8 -2 -8 -13
0 -33 31 -33 50 0 6 6 10 13 8 6 -3 12 -13 12 -24z m83 -149 c23 -44 54 -102
68 -130 14 -27 34 -63 44 -80 11 -16 24 -39 30 -50 6 -11 18 -32 28 -46 61
-92 72 -110 72 -123 0 -7 7 -19 15 -26 8 -7 15 -16 15 -20 0 -5 13 -23 29 -40
48 -53 61 -70 61 -78 0 -4 11 -19 25 -34 14 -15 25 -32 25 -38 0 -14 45 -75
81 -111 29 -29 149 -185 149 -193 0 -17 -21 0 -51 42 -18 26 -56 72 -84 102
-99 108 -227 279 -265 355 -6 11 -19 34 -30 50 -11 17 -27 44 -35 60 -9 17
-24 44 -35 60 -11 17 -24 39 -30 50 -6 11 -19 34 -30 50 -31 47 -127 225 -141
261 -7 20 -6 25 3 22 7 -2 32 -40 56 -83z m307 9 c19 -36 138 -209 193 -279
97 -126 250 -281 453 -462 110 -98 206 -180 212 -182 7 -2 28 -19 47 -38 44
-44 329 -234 435 -291 44 -23 87 -47 95 -52 32 -20 179 -79 244 -99 55 -17
210 -42 274 -44 6 0 12 -7 12 -15 0 -12 -12 -13 -62 -8 -137 14 -208 26 -253
45 -11 5 -60 25 -109 45 -48 21 -97 38 -107 39 -10 1 -19 5 -19 10 0 4 -4 5
-10 2 -5 -3 -10 -1 -10 5 0 6 -4 9 -9 6 -5 -3 -11 1 -14 9 -3 7 -21 22 -39 31
-18 9 -86 50 -151 90 -64 41 -122 74 -128 74 -17 0 -161 105 -206 150 -22 22
-46 40 -52 40 -6 0 -17 11 -23 25 -6 14 -19 25 -29 25 -10 0 -25 13 -34 30 -8
16 -19 29 -23 28 -11 -4 -48 25 -55 45 -3 9 -14 17 -23 17 -17 0 -84 62 -84
77 0 14 -64 73 -79 73 -21 0 -71 50 -71 72 0 10 -4 18 -9 18 -4 0 -29 27 -55
60 -26 33 -55 60 -65 60 -21 0 -41 19 -41 39 0 22 -50 90 -71 96 -11 4 -19 14
-19 23 0 10 -25 54 -55 99 -30 46 -55 87 -55 92 0 4 -6 14 -14 20 -18 15 -28
53 -13 48 7 -2 17 -12 22 -23z m5113 -716 c-5 -16 -48 -24 -48 -10 0 11 17 20
38 21 8 1 12 -5 10 -11z m-128 -27 c0 -13 -11 -19 -48 -26 -37 -6 -42 7 -9 23
28 13 57 15 57 3z m-143 -95 c-31 -35 -64 -77 -73 -93 -10 -15 -29 -38 -43
-51 -14 -13 -65 -61 -112 -107 -276 -268 -608 -478 -1013 -639 -99 -40 -106
-42 -106 -23 0 7 17 19 38 26 139 49 355 150 501 233 58 34 117 67 130 74 13
7 27 16 30 21 3 4 33 26 66 47 33 22 69 47 80 57 41 36 125 105 170 139 48 37
197 188 252 256 17 21 43 54 58 72 15 17 23 32 18 33 -4 0 6 7 22 14 17 7 32
12 33 10 2 -2 -21 -33 -51 -69z m889 -41 c30 -13 53 -29 49 -35 -4 -6 1 -7 11
-3 13 5 15 3 9 -7 -5 -8 -4 -11 3 -6 18 11 61 -14 55 -33 -4 -13 -3 -13 5 -2
9 12 30 4 126 -45 63 -32 122 -64 131 -70 18 -13 28 -45 28 -91 0 -22 5 -33
15 -33 19 0 9 -24 -13 -28 -12 -3 -15 0 -9 9 4 7 -14 0 -40 -15 -39 -23 -50
-26 -57 -15 -7 11 -9 11 -9 -1 0 -15 -106 -70 -134 -70 -7 0 -16 -4 -21 -9 -6
-5 -39 -19 -75 -31 -36 -13 -83 -31 -105 -40 -22 -10 -67 -28 -100 -41 -33
-12 -70 -29 -83 -37 -12 -8 -31 -12 -42 -9 -11 3 -20 1 -20 -4 0 -15 -108 -62
-126 -55 -8 3 -13 2 -9 -3 5 -9 -123 -63 -182 -75 -26 -6 -33 -4 -33 8 0 9 -6
16 -14 16 -9 0 -12 -7 -9 -20 6 -24 -22 -28 -31 -5 -3 10 -17 15 -38 14 l-33
-1 30 -7 c29 -7 29 -7 -15 -14 -33 -6 -47 -4 -55 5 -5 8 -18 12 -28 10 -38 -8
-106 100 -75 119 11 7 10 9 -1 9 -17 0 -7 60 13 75 7 6 11 16 8 23 -2 8 10 31
27 52 17 21 31 43 31 48 0 20 217 214 318 284 103 71 239 142 306 159 48 12
130 1 192 -26z m-5273 -191 c45 -32 98 -70 118 -85 20 -16 41 -29 46 -29 4 0
20 -11 35 -25 15 -14 31 -25 36 -25 5 0 18 -10 30 -23 11 -12 47 -36 79 -52
32 -17 60 -33 63 -36 6 -7 158 -96 204 -119 49 -25 45 -42 -5 -25 -102 36
-356 199 -574 367 -5 5 -36 27 -67 50 -50 36 -70 58 -53 58 3 0 42 -25 88 -56z
m917 -528 c19 -9 69 -30 110 -46 41 -17 132 -54 203 -83 125 -51 159 -73 95
-60 -50 9 -259 94 -278 113 -9 9 -21 15 -27 13 -16 -6 -83 24 -83 36 0 6 -6 8
-14 5 -8 -3 -30 1 -48 9 -110 49 -128 58 -128 68 0 5 -4 8 -10 4 -14 -9 -80
22 -80 38 0 13 90 -21 260 -97z m2110 -160 c0 -7 -9 -16 -20 -19 -22 -6 -29
18 -7 26 21 9 27 7 27 -7z m-1579 -36 c24 0 25 -16 2 -22 -28 -7 -53 2 -53 19
0 10 6 13 16 9 9 -3 24 -6 35 -6z m1456 -12 c-3 -8 -6 -5 -6 6 -1 11 2 17 5
13 3 -3 4 -12 1 -19z m-1359 -15 c2 -8 -6 -13 -22 -13 -17 0 -26 5 -26 16 0
19 41 16 48 -3z m1302 2 c0 -8 -4 -15 -10 -15 -5 0 -10 7 -10 15 0 8 5 15 10
15 6 0 10 -7 10 -15z m-1260 -10 c0 -8 -7 -15 -15 -15 -8 0 -15 7 -15 15 0 8
7 15 15 15 8 0 15 -7 15 -15z m1225 5 c6 -9 -33 -30 -56 -30 -18 0 -9 21 14
30 29 12 35 12 42 0z m-1148 -32 c-3 -8 -6 -5 -6 6 -1 11 2 17 5 13 3 -3 4
-12 1 -19z m1073 7 c0 -8 -4 -15 -10 -15 -5 0 -10 7 -10 15 0 8 5 15 10 15 6
0 10 -7 10 -15z m-1020 -10 c0 -8 -4 -15 -10 -15 -5 0 -10 7 -10 15 0 8 5 15
10 15 6 0 10 -7 10 -15z m980 0 c0 -8 -8 -15 -17 -15 -10 0 -28 -3 -40 -6 -14
-4 -23 -2 -23 5 0 13 35 29 63 30 9 1 17 -6 17 -14z m-943 -17 c-3 -8 -6 -5
-6 6 -1 11 2 17 5 13 3 -3 4 -12 1 -19z m61 13 c17 -1 15 -31 -2 -31 -25 0
-46 12 -46 25 0 7 8 12 18 10 9 -2 23 -4 30 -4z m790 -13 c-6 -18 -28 -21 -28
-4 0 9 7 16 16 16 9 0 14 -5 12 -12z m-685 -4 c23 -4 37 -12 37 -21 0 -12 -9
-14 -47 -8 -53 8 -63 12 -63 26 0 10 20 11 73 3z m627 -9 c0 -8 -9 -15 -20
-15 -11 0 -20 7 -20 15 0 8 9 15 20 15 11 0 20 -7 20 -15z m-52 -6 c-2 -6 -8
-10 -13 -10 -5 0 -11 4 -13 10 -2 6 4 11 13 11 9 0 15 -5 13 -11z m-420 -17
c3 -10 -7 -12 -39 -10 -24 2 -44 9 -47 16 -3 10 7 12 39 10 24 -2 44 -9 47
-16z m142 -8 c0 -12 -10 -14 -52 -12 -74 4 -77 28 -4 28 44 0 56 -3 56 -16z
m50 1 c0 -8 -7 -15 -15 -15 -8 0 -15 7 -15 15 0 8 7 15 15 15 8 0 15 -7 15
-15z m55 0 c0 -5 -10 -11 -22 -13 -16 -2 -23 2 -23 13 0 11 7 15 23 13 12 -2
22 -7 22 -13z m-2755 -215 c0 -5 -2 -10 -4 -10 -3 0 -8 5 -11 10 -3 6 -1 10 4
10 6 0 11 -4 11 -10z m-2 -116 c-10 -10 -28 6 -28 24 0 15 1 15 17 -1 9 -9 14
-19 11 -23z m-94 -135 c-3 -5 -10 -7 -15 -3 -5 3 -7 10 -3 15 3 5 10 7 15 3 5
-3 7 -10 3 -15z m358 -11 c-7 -7 -12 -8 -12 -2 0 14 12 26 19 19 2 -3 -1 -11
-7 -17z m-242 -6 c0 -14 -89 -96 -96 -89 -4 4 -2 7 4 7 7 0 11 4 10 8 -2 5 13
25 32 45 33 36 50 45 50 29z m360 -77 c0 -8 -7 -15 -15 -15 -8 0 -15 -5 -15
-12 0 -6 -3 -8 -7 -5 -3 4 2 16 12 27 22 24 25 25 25 5z m188 -47 c-3 -7 -12
-14 -21 -16 -12 -2 -15 1 -11 12 7 19 38 22 32 4z m-140 -50 c-2 -6 -10 -14
-16 -16 -7 -2 -10 2 -6 12 7 18 28 22 22 4z m-248 -6 c0 -12 -90 -85 -97 -78
-8 8 27 46 41 46 7 0 19 9 29 20 18 21 27 25 27 12z m-100 -102 c0 -5 -9 -14
-20 -20 -24 -13 -26 -7 -4 14 18 18 24 20 24 6z"/>
<path d="M14025 7040 c-3 -5 -1 -10 4 -10 6 0 11 5 11 10 0 6 -2 10 -4 10 -3
0 -8 -4 -11 -10z"/>
<path d="M5812 8175 c4 -4 31 -9 60 -10 29 -2 82 -6 118 -10 52 -6 63 -5 53 5
-7 8 -54 14 -125 17 -62 3 -110 2 -106 -2z"/>
<path d="M5886 8126 c6 -15 34 -30 42 -22 10 11 -9 36 -27 36 -14 0 -19 -5
-15 -14z"/>
<path d="M6105 8001 c-6 -11 9 -23 19 -14 9 9 7 23 -3 23 -6 0 -12 -4 -16 -9z"/>
<path d="M5299 7986 c-2 -2 -173 -6 -379 -10 -447 -7 -950 -25 -1075 -36 -113
-11 691 -4 1180 10 583 16 706 19 800 21 61 1 82 4 65 9 -24 8 -582 14 -591 6z"/>
<path d="M5930 7932 c0 -5 7 -15 15 -22 8 -7 15 -8 15 -2 0 5 -7 15 -15 22 -8
7 -15 8 -15 2z"/>
<path d="M5770 7867 c-6 -6 -98 -13 -340 -27 -101 -5 -198 -12 -215 -15 -16
-3 -115 -10 -220 -15 -254 -12 -695 -46 -935 -71 -107 -11 -215 -22 -239 -24
-107 -9 -161 -22 -161 -37 0 -14 322 -3 505 17 72 8 189 15 260 15 72 1 189 6
260 11 72 5 247 14 390 19 143 4 285 11 315 13 85 8 351 20 470 21 115 1 140
10 140 51 0 17 -8 24 -32 30 -42 9 -192 18 -198 12z"/>
<path d="M6583 7844 c-65 -28 -42 -38 57 -23 81 11 91 17 67 38 -19 15 -69 9
-124 -15z"/>
<path d="M6488 7813 c6 -2 18 -2 25 0 6 3 1 5 -13 5 -14 0 -19 -2 -12 -5z"/>
<path d="M5438 6408 c9 -9 15 -9 24 0 9 9 7 12 -12 12 -19 0 -21 -3 -12 -12z"/>
<path d="M5238 6363 c7 -3 16 -2 19 1 4 3 -2 6 -13 5 -11 0 -14 -3 -6 -6z"/>
<path d="M4916 6351 c-4 -5 -3 -17 1 -27 6 -16 7 -16 20 2 7 10 13 21 13 26 0
11 -27 10 -34 -1z"/>
<path d="M4946 6305 c-4 -11 2 -15 22 -15 15 0 34 5 42 11 12 9 11 10 -7 6
-13 -3 -26 -1 -29 4 -8 14 -21 11 -28 -6z"/>
<path d="M4762 6219 c2 -6 8 -10 13 -10 5 0 11 4 13 10 2 6 -4 11 -13 11 -9 0
-15 -5 -13 -11z"/>
<path d="M4388 6163 c6 -2 18 -2 25 0 6 3 1 5 -13 5 -14 0 -19 -2 -12 -5z"/>
<path d="M4220 6080 c0 -5 5 -10 11 -10 5 0 7 5 4 10 -3 6 -8 10 -11 10 -2 0
-4 -4 -4 -10z"/>
<path d="M3810 5965 c0 -8 5 -15 10 -15 6 0 10 7 10 15 0 8 -4 15 -10 15 -5 0
-10 -7 -10 -15z"/>
<path d="M10858 5973 c12 -2 30 -2 40 0 9 3 -1 5 -23 4 -22 0 -30 -2 -17 -4z"/>
<path d="M10721 5963 c17 -4 55 -63 51 -78 -2 -7 0 -7 6 0 6 6 12 27 15 48 l5
37 -47 -1 c-25 -1 -39 -3 -30 -6z"/>
<path d="M10790 5815 c12 -19 19 -39 15 -45 -4 -6 6 -10 25 -10 17 0 29 4 25
10 -3 5 -13 6 -22 3 -15 -6 -15 -5 -1 16 15 21 15 24 -3 42 -10 10 -28 19 -40
19 l-21 0 22 -35z"/>
<path d="M10830 5721 c0 -4 11 -6 25 -3 14 2 25 6 25 8 0 2 -11 4 -25 4 -14 0
-25 -4 -25 -9z"/>
<path d="M11228 5373 c7 -3 16 -2 19 1 4 3 -2 6 -13 5 -11 0 -14 -3 -6 -6z"/>
<path d="M11238 5333 c7 -3 16 -2 19 1 4 3 -2 6 -13 5 -11 0 -14 -3 -6 -6z"/>
<path d="M9480 5290 c0 -5 5 -10 10 -10 6 0 10 5 10 10 0 6 -4 10 -10 10 -5 0
-10 -4 -10 -10z"/>
<path d="M11250 5220 c-12 -23 -5 -26 16 -6 16 17 18 26 4 26 -5 0 -14 -9 -20
-20z"/>
<path d="M9378 5158 c-15 -15 -16 -18 -3 -18 9 0 18 7 22 15 8 23 0 24 -19 3z"/>
<path d="M11365 5140 c-3 -5 1 -10 9 -10 9 0 16 5 16 10 0 6 -4 10 -9 10 -6 0
-13 -4 -16 -10z"/>
<path d="M11347 5083 c-4 -3 0 -15 10 -25 13 -14 13 -18 2 -18 -11 0 -11 -2 1
-10 19 -12 90 -13 90 -1 0 15 -18 23 -25 11 -12 -20 -26 -10 -14 11 9 18 8 20
-9 15 -13 -4 -22 -1 -26 9 -6 16 -18 19 -29 8z"/>
<path d="M9315 5070 c3 -5 8 -10 11 -10 2 0 4 5 4 10 0 6 -5 10 -11 10 -5 0
-7 -4 -4 -10z"/>
<path d="M9495 5060 c-3 -5 -1 -10 4 -10 6 0 11 5 11 10 0 6 -2 10 -4 10 -3 0
-8 -4 -11 -10z"/>
<path d="M9289 5022 c6 -11 6 -24 -1 -35 -7 -13 -5 -25 7 -43 23 -36 8 -45
-19 -12 l-22 28 -33 -35 c-18 -19 -37 -35 -42 -35 -5 0 -9 -4 -9 -10 0 -5 6
-7 14 -4 8 3 20 -3 27 -14 11 -17 14 -18 27 -6 7 8 18 12 23 9 5 -4 9 -2 9 4
0 10 25 9 36 -1 3 -4 0 -22 -7 -42 -11 -31 -11 -38 6 -56 10 -11 15 -23 11
-28 -4 -4 -13 1 -20 11 -18 23 -29 22 -21 -3 5 -14 -5 -33 -32 -67 -28 -34
-32 -43 -16 -35 12 7 25 17 28 22 9 14 25 12 25 -2 -1 -7 -17 -25 -37 -40 -22
-17 -30 -28 -20 -28 9 0 19 4 22 10 3 5 15 15 26 21 19 9 19 9 10 -10 -14 -26
-14 -31 4 -31 20 0 19 -15 -2 -47 -10 -15 -12 -24 -5 -20 8 6 12 1 11 -15 -1
-38 -25 -93 -40 -93 -8 -1 -13 -6 -11 -13 1 -7 -10 -12 -31 -12 -22 0 -36 -7
-45 -20 -7 -12 -24 -25 -38 -30 -32 -12 -22 -30 16 -30 20 0 31 6 35 20 7 21
33 39 65 45 11 2 19 1 19 -3 -1 -4 0 -9 1 -12 6 -17 7 -40 1 -40 -3 0 -15 6
-26 14 -19 13 -20 11 -21 -18 -1 -17 1 -25 3 -18 3 6 11 12 18 12 18 0 12
-110 -7 -125 -14 -11 -12 -75 2 -75 5 0 7 -7 4 -15 -4 -8 -11 -15 -16 -15 -6
0 -7 7 -4 16 4 11 1 14 -12 9 -17 -5 -19 2 -20 75 0 44 -4 85 -7 90 -14 22
-20 7 -16 -41 l3 -51 -33 6 -34 7 28 -23 c30 -26 36 -44 11 -34 -12 5 -14 1
-9 -15 5 -14 2 -25 -6 -30 -10 -6 -11 -9 -1 -9 6 0 12 -9 12 -21 0 -11 4 -18
9 -15 5 4 8 -2 6 -11 -2 -10 -4 -22 -4 -26 -1 -4 -12 2 -26 15 -51 49 -55 51
-55 29 0 -11 6 -22 13 -25 10 -5 10 -7 0 -12 -7 -3 -13 -15 -13 -27 0 -16 3
-18 12 -9 20 20 28 13 16 -13 -6 -14 -15 -25 -20 -25 -9 0 -11 -222 -1 -270 3
-20 13 -35 25 -37 21 -6 25 -48 6 -57 -9 -3 -7 -9 6 -20 22 -18 40 -21 31 -6
-12 19 8 10 42 -20 19 -17 45 -30 61 -30 22 0 24 -2 12 -11 -10 -7 -11 -9 -2
-7 20 5 15 23 -7 26 -23 4 -94 79 -86 91 2 5 -5 11 -17 14 -17 5 -19 9 -10 20
9 10 9 16 0 25 -9 9 -7 15 8 27 10 8 24 15 29 15 13 0 115 93 115 103 0 4 -11
0 -25 -9 -24 -15 -25 -15 -26 2 -1 17 -2 17 -7 -2 -15 -47 -71 -95 -72 -61 0
6 -5 4 -11 -7 -9 -14 -13 -15 -19 -6 -9 14 96 113 113 107 5 -1 31 19 59 46
45 44 50 52 46 85 -3 20 1 48 9 62 7 14 13 39 13 56 0 16 9 78 19 136 11 59
23 139 26 179 3 40 8 76 11 81 10 16 -9 81 -25 85 -10 2 -22 13 -29 24 -11 17
-9 21 10 29 21 8 21 9 3 10 -15 0 -17 2 -6 9 11 7 11 9 0 14 -10 4 -10 6 -1 6
6 1 12 10 12 21 0 26 8 25 37 -2 20 -18 23 -19 23 -5 0 9 -4 17 -10 17 -5 0
-10 7 -10 15 0 8 -9 24 -21 36 l-21 21 33 -7 34 -7 -22 24 c-13 13 -23 31 -23
39 0 8 -9 27 -19 43 -11 16 -18 37 -16 47 2 12 -7 27 -26 40 -27 19 -30 26
-24 56 4 24 3 33 -4 28 -6 -3 -11 1 -11 9 0 9 -5 16 -10 16 -7 0 -7 -6 -1 -18z
m76 -612 c3 -6 -1 -13 -10 -16 -19 -8 -30 0 -20 15 8 14 22 14 30 1z m-225
-600 c-19 -12 -30 -12 -30 -1 0 10 31 20 40 14 2 -2 -2 -8 -10 -13z m-48 -50
c-2 -16 -8 -30 -13 -30 -10 0 -12 43 -2 53 14 14 19 6 15 -23z"/>
<path d="M11435 4980 c3 -5 -1 -10 -9 -10 -10 0 -16 -9 -16 -24 0 -20 4 -23
28 -18 15 3 21 7 15 9 -18 6 -16 23 2 23 9 0 12 6 9 15 -4 8 -13 15 -21 15 -8
0 -11 -4 -8 -10z"/>
<path d="M9481 4884 c0 -11 3 -14 6 -6 3 7 2 16 -1 19 -3 4 -6 -2 -5 -13z"/>
<path d="M11500 4869 c-12 -9 -11 -10 7 -6 12 3 24 0 27 -7 2 -6 5 -3 5 7 1
19 -16 22 -39 6z"/>
<path d="M11420 4855 c0 -8 5 -15 10 -15 6 0 10 7 10 15 0 8 -4 15 -10 15 -5
0 -10 -7 -10 -15z"/>
<path d="M9168 4837 c-19 -16 -41 -93 -33 -117 4 -12 2 -20 -5 -20 -6 0 -8 -4
-5 -10 3 -5 15 -10 25 -10 14 0 18 -7 18 -27 -1 -32 10 -63 23 -63 17 0 9 30
-8 30 -17 1 -17 2 0 14 15 11 16 19 8 34 -6 11 -7 23 -3 27 4 3 3 6 -3 5 -22
-5 -27 1 -15 15 7 8 16 12 21 9 5 -3 9 0 9 6 0 6 5 8 10 5 6 -3 10 -1 10 4 0
6 -10 11 -22 12 -22 0 -22 1 -3 9 11 5 14 9 8 9 -15 1 -17 37 -3 46 6 3 10 10
10 15 0 14 -28 19 -42 7z"/>
<path d="M9435 4820 c3 -5 8 -10 11 -10 2 0 4 5 4 10 0 6 -5 10 -11 10 -5 0
-7 -4 -4 -10z"/>
<path d="M11552 4806 c7 -8 15 -12 17 -11 5 6 -10 25 -20 25 -5 0 -4 -6 3 -14z"/>
<path d="M11477 4791 c3 -12 11 -17 19 -14 8 3 14 -1 14 -11 0 -9 7 -19 15
-22 8 -4 15 -14 15 -23 0 -14 -2 -14 -10 -1 -15 24 -13 -15 3 -40 10 -17 9
-22 -1 -28 -13 -9 19 -44 71 -77 43 -27 47 -7 5 27 -26 20 -38 39 -39 56 l-1
27 -8 -25 c-7 -21 -8 -19 -9 18 -1 31 3 42 14 42 24 0 17 13 -20 40 -19 14
-35 31 -35 38 0 6 -9 12 -19 12 -14 0 -18 -5 -14 -19z"/>
<path d="M11466 4745 c7 -17 44 -41 44 -28 0 4 -12 16 -25 26 -20 15 -24 15
-19 2z"/>
<path d="M9100 4615 c0 -17 18 -19 38 -6 11 7 10 10 -3 15 -26 10 -35 7 -35
-9z"/>
<path d="M11620 4621 c0 -5 5 -13 10 -16 6 -3 10 -2 10 4 0 5 -4 13 -10 16 -5
3 -10 2 -10 -4z"/>
<path d="M9566 4605 c-4 -12 5 -15 49 -15 44 0 53 3 49 15 -4 10 -20 15 -49
15 -29 0 -45 -5 -49 -15z"/>
<path d="M11520 4603 c1 -20 30 -44 49 -41 18 3 16 6 -14 26 -19 12 -35 19
-35 15z"/>
<path d="M11572 4508 c15 -23 88 -39 88 -20 0 19 -38 42 -70 42 -31 0 -32 -1
-18 -22z"/>
<path d="M9481 4504 c0 -11 3 -14 6 -6 3 7 2 16 -1 19 -3 4 -6 -2 -5 -13z"/>
<path d="M9206 4455 c-10 -15 -16 -31 -13 -38 2 -6 11 4 20 22 21 42 16 51 -7
16z"/>
<path d="M9090 4448 c0 -4 9 -8 20 -8 11 0 20 4 20 8 0 4 -9 8 -20 8 -11 0
-20 -4 -20 -8z"/>
<path d="M9545 4413 c-3 -15 -12 -31 -18 -35 -9 -6 -8 -11 3 -18 13 -8 12 -11
-5 -24 -11 -9 -15 -16 -8 -16 17 0 14 -70 -3 -70 -8 0 -14 -9 -14 -20 0 -11 6
-20 13 -20 8 0 7 -4 -3 -10 -13 -9 -13 -10 0 -10 13 0 13 -1 0 -10 -13 -9 -13
-10 0 -10 12 0 13 -2 1 -9 -11 -7 -11 -9 0 -14 10 -4 9 -6 -3 -6 -14 -1 -16
-5 -8 -26 6 -16 6 -25 0 -25 -15 0 -12 -40 3 -40 6 0 4 -5 -5 -11 -21 -12 -24
-35 -5 -43 6 -4 2 -4 -11 -2 -12 2 -20 0 -16 -5 3 -5 12 -9 20 -9 8 0 12 -4 9
-10 -4 -6 17 -10 54 -10 54 0 61 2 61 20 0 11 5 20 11 20 5 0 7 5 4 10 -3 6
-1 10 4 10 6 0 11 9 11 21 0 11 -4 17 -10 14 -5 -3 -10 1 -10 9 0 9 6 16 13
16 9 0 9 2 -1 9 -14 9 -12 36 8 104 6 21 15 35 19 32 5 -3 12 2 15 11 9 22 8
24 -11 24 -14 0 -15 2 -4 9 11 7 11 9 0 13 -10 3 -11 11 -4 29 6 13 9 48 7 77
l-3 52 -53 0 c-50 0 -54 -2 -61 -27z"/>
<path d="M9060 4391 c0 -19 4 -30 10 -26 5 3 17 2 26 -3 17 -10 54 12 54 32 0
5 -3 6 -7 3 -3 -4 -13 -2 -20 5 -11 9 -17 9 -24 -3 -8 -12 -12 -11 -24 5 -14
19 -15 18 -15 -13z"/>
<path d="M11700 4400 c0 -5 5 -10 11 -10 5 0 7 5 4 10 -3 6 -8 10 -11 10 -2 0
-4 -4 -4 -10z"/>
<path d="M11716 4369 c4 -8 -1 -9 -16 -4 -16 5 -20 4 -15 -5 5 -9 1 -10 -15
-5 l-23 7 24 -38 c13 -22 27 -40 31 -42 4 -2 8 -16 8 -31 0 -15 5 -32 12 -39
14 -14 42 -16 33 -2 -3 6 2 10 11 10 10 0 14 -3 11 -7 -4 -3 1 -12 11 -19 40
-31 42 -8 6 61 -26 47 -54 84 -54 69 0 -3 -7 -1 -16 7 -14 12 -14 14 0 25 15
11 15 12 1 18 -10 4 -14 2 -9 -5z m44 -125 c0 -8 -4 -12 -10 -9 -5 3 -10 10
-10 16 0 5 5 9 10 9 6 0 10 -7 10 -16z"/>
<path d="M9062 4330 c0 -14 2 -19 5 -12 2 6 2 18 0 25 -3 6 -5 1 -5 -13z"/>
<path d="M9062 4230 c0 -14 2 -19 5 -12 2 6 2 18 0 25 -3 6 -5 1 -5 -13z"/>
<path d="M9663 4185 c-3 -9 -3 -18 -1 -21 3 -3 8 4 11 16 6 23 -1 27 -10 5z"/>
<path d="M11735 4135 c41 -24 65 -48 65 -64 0 -9 4 -21 9 -26 4 -6 12 -23 15
-39 7 -29 7 -29 -18 -13 l-25 17 6 -53 c9 -78 19 -100 43 -92 22 7 24 2 10
-25 -15 -29 23 -70 65 -70 48 0 65 9 65 35 0 40 -18 75 -35 69 -16 -7 -21 11
-5 21 6 4 2 15 -10 27 -11 12 -20 29 -20 37 -1 21 -25 53 -33 44 -4 -3 -7 5
-7 20 0 14 5 27 10 29 6 2 -14 25 -44 51 -40 34 -62 46 -81 45 -24 -2 -25 -4
-10 -13z m115 -86 c0 -6 -7 -6 -20 1 -11 6 -20 15 -20 21 0 6 7 6 20 -1 11 -6
20 -15 20 -21z"/>
<path d="M9652 4110 c0 -14 2 -19 5 -12 2 6 2 18 0 25 -3 6 -5 1 -5 -13z"/>
<path d="M9686 4114 c-20 -19 -21 -35 -2 -28 8 3 17 1 21 -5 13 -22 25 -11 13
12 -7 12 -11 25 -10 30 3 11 -5 8 -22 -9z"/>
<path d="M9480 3920 c0 -6 30 -10 70 -10 40 0 70 4 70 10 0 6 -30 10 -70 10
-40 0 -70 -4 -70 -10z"/>
<path d="M9528 3873 c17 -2 47 -2 65 0 17 2 3 4 -33 4 -36 0 -50 -2 -32 -4z"/>
<path d="M9513 3813 c9 -2 25 -2 35 0 9 3 1 5 -18 5 -19 0 -27 -2 -17 -5z"/>
<path d="M9285 3750 c-3 -5 -14 -10 -24 -10 -10 0 -29 -13 -43 -28 l-24 -28
22 -17 c13 -9 30 -17 39 -17 11 0 15 -5 11 -16 -3 -8 -2 -12 3 -9 5 3 12 -3
15 -12 3 -10 4 3 2 30 -2 26 0 47 4 47 4 0 10 16 12 35 4 34 -4 46 -17 25z"/>
<path d="M11970 3745 c-7 -9 -29 -15 -51 -15 -30 0 -37 -3 -33 -15 4 -8 14
-15 23 -15 9 0 30 -13 48 -30 26 -24 33 -27 43 -16 12 16 3 69 -11 60 -5 -3
-9 4 -9 15 0 10 6 22 13 24 7 4 8 6 1 6 -6 1 -17 -6 -24 -14z"/>
<path d="M11940 3620 c0 -5 5 -10 11 -10 5 0 7 5 4 10 -3 6 -8 10 -11 10 -2 0
-4 -4 -4 -10z"/>
<path d="M12010 3591 c-15 -30 -13 -32 19 -13 29 16 32 32 6 32 -8 0 -19 -9
-25 -19z"/>
<path d="M9195 3570 c16 -16 31 -28 33 -25 7 7 -39 55 -52 55 -5 0 3 -13 19
-30z"/>
<path d="M12060 3480 c0 -11 -4 -20 -10 -20 -13 0 -13 -47 0 -55 6 -4 8 -11 5
-16 -4 -5 19 -9 53 -9 51 0 63 4 86 26 20 21 24 30 15 40 -6 8 -15 12 -19 9
-5 -3 -17 6 -28 20 -15 19 -29 25 -61 25 -34 0 -41 -3 -41 -20z"/>
<path d="M9110 3483 c1 -20 16 -31 30 -22 13 8 13 10 0 19 -18 12 -30 13 -30
3z"/>
<path d="M9200 3435 c0 -8 7 -15 15 -15 8 0 15 4 15 9 0 5 -7 11 -15 15 -9 3
-15 0 -15 -9z"/>
<path d="M9153 3425 c0 -8 4 -15 9 -15 4 0 8 7 8 15 0 8 -4 15 -8 15 -5 0 -9
-7 -9 -15z"/>
<path d="M9227 3400 c-3 -11 -1 -20 4 -20 5 0 3 -11 -3 -25 -9 -21 -9 -29 4
-41 11 -11 15 -12 15 -2 0 7 4 34 8 61 6 38 5 47 -8 47 -8 0 -17 -9 -20 -20z"/>
<path d="M9177 3309 c-8 -29 4 -42 27 -33 10 4 14 10 8 13 -5 3 -13 14 -19 25
-9 17 -10 17 -16 -5z"/>
<path d="M9200 3241 c0 -5 9 -11 20 -14 24 -6 27 8 4 17 -21 8 -24 8 -24 -3z"/>
<path d="M11655 3175 c16 -51 17 -51 25 -30 4 12 2 25 -6 32 -17 17 -24 16
-19 -2z"/>
<path d="M11598 3159 c-6 -17 15 -52 25 -42 11 10 8 45 -2 39 -5 -4 -11 -1
-13 6 -3 8 -6 7 -10 -3z"/>
<path d="M9198 3153 c7 -3 16 -2 19 1 4 3 -2 6 -13 5 -11 0 -14 -3 -6 -6z"/>
<path d="M12195 3130 c-3 -5 -1 -10 4 -10 6 0 11 5 11 10 0 6 -2 10 -4 10 -3
0 -8 -4 -11 -10z"/>
<path d="M11675 3110 c3 -5 8 -10 11 -10 2 0 4 5 4 10 0 6 -5 10 -11 10 -5 0
-7 -4 -4 -10z"/>
<path d="M11628 3095 c-7 -8 14 -55 25 -55 9 0 -1 40 -12 53 -4 4 -10 5 -13 2z"/>
<path d="M9373 3084 c3 -4 0 -19 -8 -35 -8 -15 -15 -30 -15 -33 0 -12 62 -17
75 -6 8 7 22 10 30 6 9 -3 13 -2 10 4 -3 6 -2 10 3 10 5 0 12 14 14 30 l5 30
-60 0 c-33 0 -58 -3 -54 -6z"/>
<path d="M12147 3063 c-10 -10 -8 -63 2 -63 5 0 11 8 14 18 2 9 8 25 12 35 7
17 -14 25 -28 10z"/>
<path d="M12201 3024 c-10 -22 -9 -25 6 -22 10 2 19 13 21 26 5 30 -12 28 -27
-4z"/>
<path d="M9400 2975 c0 -13 53 -12 57 1 2 5 -10 9 -27 9 -16 0 -30 -5 -30 -10z"/>
<path d="M9501 2954 c0 -11 3 -14 6 -6 3 7 2 16 -1 19 -3 4 -6 -2 -5 -13z"/>
<path d="M11691 2914 c0 -11 3 -14 6 -6 3 7 2 16 -1 19 -3 4 -6 -2 -5 -13z"/>
<path d="M9484 2906 c-11 -12 -7 -39 5 -32 4 3 13 0 21 -5 13 -8 13 -10 0 -18
-9 -7 -17 -6 -21 0 -3 6 -9 1 -12 -10 -4 -18 -1 -21 24 -21 23 0 29 4 29 23 0
55 -23 87 -46 63z"/>
<path d="M9615 2902 c-12 -9 -24 -25 -28 -34 -3 -10 -11 -18 -17 -18 -5 0 -10
-12 -10 -26 0 -38 23 -24 36 22 7 25 17 38 25 35 8 -2 22 -6 33 -9 18 -5 18
-4 1 22 -9 14 -18 26 -19 26 0 -1 -10 -8 -21 -18z"/>
<path d="M9425 2870 c4 -6 11 -8 16 -5 14 9 11 15 -7 15 -8 0 -12 -5 -9 -10z"/>
<path d="M9565 2650 c3 -5 11 -10 16 -10 6 0 7 5 4 10 -3 6 -11 10 -16 10 -6
0 -7 -4 -4 -10z"/>
<path d="M11785 2630 c-3 -5 3 -10 14 -10 12 0 21 5 21 10 0 6 -6 10 -14 10
-8 0 -18 -4 -21 -10z"/>
<path d="M11848 2518 c9 -9 15 -9 24 0 9 9 7 12 -12 12 -19 0 -21 -3 -12 -12z"/>
<path d="M13810 1900 c0 -5 7 -7 15 -4 8 4 15 8 15 10 0 2 -7 4 -15 4 -8 0
-15 -4 -15 -10z"/>
<path d="M13291 1384 c0 -11 3 -14 6 -6 3 7 2 16 -1 19 -3 4 -6 -2 -5 -13z"/>
<path d="M6012 13192 c13 -16 29 -29 36 -29 19 0 -9 38 -37 49 l-22 8 23 -28z"/>
<path d="M13996 10575 c4 -8 10 -15 15 -15 4 0 6 7 3 15 -4 8 -10 15 -15 15
-4 0 -6 -7 -3 -15z"/>
<path d="M13980 10529 c0 -5 5 -7 10 -4 6 3 10 8 10 11 0 2 -4 4 -10 4 -5 0
-10 -5 -10 -11z"/>
<path d="M14040 10423 c0 -10 56 -58 104 -87 l31 -20 -18 20 c-9 11 -15 24
-12 27 3 4 2 5 -1 2 -4 -2 -29 11 -55 31 -27 20 -49 32 -49 27z"/>
<path d="M14107 10315 c3 -8 9 -12 14 -9 12 7 11 11 -5 17 -10 4 -13 1 -9 -8z"/>
<path d="M14130 10295 c0 -3 18 -28 40 -56 22 -28 38 -55 34 -60 -3 -5 -1 -9
5 -9 5 0 19 -16 31 -35 12 -19 26 -32 31 -29 6 3 -1 21 -15 39 -15 19 -26 40
-26 48 0 21 -69 107 -85 107 -8 0 -15 -2 -15 -5z"/>
<path d="M14254 10223 c2 -12 -1 -24 -8 -27 -6 -2 -3 -5 7 -5 19 -1 20 5 6 34
-9 19 -9 19 -5 -2z"/>
<path d="M14340 10093 c0 -13 29 -38 35 -31 3 3 -4 13 -15 23 -11 10 -20 13
-20 8z"/>
<path d="M14421 9957 c114 -113 194 -206 185 -214 -4 -4 -28 17 -54 47 -92
105 -222 230 -239 230 -15 0 -16 -2 -3 -10 8 -5 12 -10 8 -10 -5 0 1 -9 13
-21 11 -11 18 -24 14 -27 -4 -4 -13 2 -22 13 -15 19 -15 19 -8 -4 5 -15 3 -26
-6 -32 -11 -7 -10 -9 3 -9 21 0 46 -40 26 -40 -10 0 -10 -2 -1 -8 6 -4 13 -14
15 -22 2 -7 14 -24 26 -37 13 -12 22 -28 20 -35 -3 -7 1 -19 9 -26 7 -8 11
-18 8 -23 -4 -5 -1 -9 5 -9 6 0 8 -4 5 -10 -3 -5 -1 -10 5 -10 6 0 8 -4 5 -10
-3 -5 2 -10 12 -10 14 0 15 -2 5 -9 -10 -6 -8 -10 8 -14 18 -5 22 -11 18 -36
-3 -18 0 -29 6 -28 6 1 11 -8 10 -20 -1 -25 11 -31 20 -10 4 6 4 -3 1 -20 -2
-18 0 -33 5 -33 6 0 10 -10 10 -22 0 -13 9 -42 19 -65 18 -39 22 -41 55 -38
20 2 36 -1 36 -6 0 -12 -33 -27 -48 -22 -13 5 -11 -3 27 -89 11 -27 25 -48 30
-48 8 0 81 -94 81 -105 0 -14 -35 13 -56 44 -21 29 -24 31 -19 11 23 -79 47
-128 70 -140 27 -14 35 -43 10 -34 -19 8 -19 5 1 -64 20 -72 30 -82 45 -49 7
15 16 27 21 27 15 0 8 -27 -13 -54 -11 -14 -19 -34 -17 -43 5 -26 35 -28 43
-3 3 11 11 18 16 15 15 -10 10 -25 -17 -52 -22 -22 -24 -29 -15 -50 6 -13 11
-32 11 -41 0 -9 14 -33 30 -52 33 -38 38 -55 15 -46 -18 6 -19 -6 -5 -56 7
-22 19 -39 30 -43 11 -4 18 -11 14 -16 -3 -6 -12 -8 -19 -6 -19 8 11 -123 33
-140 12 -10 14 -16 5 -19 -7 -3 -13 -14 -13 -24 0 -34 60 -255 70 -258 6 -2 8
-8 4 -13 -3 -5 0 -9 6 -9 6 0 8 -4 5 -10 -3 -5 -1 -10 5 -10 6 0 8 -4 5 -10
-3 -5 -1 -10 6 -10 7 0 10 -3 7 -6 -4 -3 10 -21 30 -39 41 -37 40 -57 -1 -24
-34 26 -35 6 -2 -27 42 -42 58 -71 43 -77 -9 -4 -7 -6 4 -6 10 -1 22 -11 29
-23 10 -18 9 -20 -5 -15 -9 4 -16 4 -16 2 0 -13 25 -55 32 -55 5 0 6 5 3 10
-3 6 -1 10 5 10 7 0 9 -8 5 -19 -4 -14 0 -23 13 -30 11 -6 20 -21 20 -34 0
-32 48 -107 70 -107 14 0 15 -2 2 -10 -13 -8 -12 -10 4 -10 11 0 17 -3 14 -6
-4 -3 3 -15 14 -26 16 -16 18 -22 7 -29 -11 -7 -9 -9 6 -9 17 0 17 -2 5 -10
-13 -8 -12 -10 4 -10 11 0 17 -3 14 -6 -4 -3 3 -15 14 -26 16 -16 18 -22 7
-29 -11 -7 -9 -9 6 -9 15 0 17 -2 6 -9 -11 -7 -9 -13 7 -29 11 -11 18 -23 14
-26 -3 -3 -1 -6 4 -6 5 0 10 -10 11 -22 1 -11 8 -25 15 -29 7 -5 9 -9 3 -9 -5
0 -3 -5 5 -10 8 -5 15 -23 16 -39 1 -17 13 -44 28 -61 14 -18 24 -35 22 -39
-11 -17 31 -121 57 -141 19 -15 26 -28 22 -40 -4 -13 2 -24 20 -36 14 -9 25
-21 25 -26 0 -6 -11 -3 -25 6 -32 21 -32 5 -1 -37 33 -45 39 -57 28 -57 -6 0
-24 21 -41 47 -34 52 -36 51 -20 -13 6 -24 16 -44 23 -44 6 0 5 -4 -3 -9 -12
-8 -12 -15 -1 -43 29 -76 41 -97 61 -103 31 -10 45 9 31 40 -6 14 -8 25 -3 25
14 0 68 -65 63 -78 -2 -7 6 -12 22 -12 14 0 26 5 26 10 0 6 7 10 15 10 8 0 15
-5 15 -11 0 -12 5 -11 143 11 l77 12 0 125 c0 110 -2 128 -20 150 -22 29 -19
43 5 23 13 -11 15 -2 15 73 0 59 -4 87 -12 90 -10 3 -10 7 0 19 10 12 12 225
10 1029 l-3 1014 -40 8 c-22 5 -76 17 -120 28 -108 26 -131 25 -160 -8 -13
-16 -26 -25 -30 -21 -4 4 6 20 22 37 l29 29 -35 11 c-20 5 -68 17 -108 25 -68
15 -111 34 -211 97 -57 35 -78 44 -164 75 -37 13 -90 38 -117 54 -26 17 -53
30 -59 30 -5 0 -36 25 -68 55 -32 30 -60 53 -62 50 -9 -9 42 -67 78 -90 33
-21 89 -81 173 -184 10 -12 22 -33 27 -46 5 -14 30 -33 67 -50 32 -15 67 -32
79 -37 12 -5 33 -20 48 -33 14 -12 42 -33 61 -46 34 -23 44 -39 26 -39 -5 0
-23 12 -40 26 -17 14 -31 21 -31 16 0 -12 69 -100 93 -121 18 -14 24 -36 7
-26 -5 3 -10 1 -10 -4 0 -6 35 -34 77 -63 87 -60 154 -117 136 -118 -6 0 -26
12 -44 28 -18 15 -65 50 -105 77 -47 32 -94 77 -132 126 -33 42 -67 79 -76 82
-9 4 -16 18 -16 34 0 37 -9 48 -50 62 -56 19 -112 60 -106 77 3 8 2 13 -2 10
-5 -3 -16 11 -26 29 -11 19 -23 32 -28 29 -5 -3 -7 0 -6 8 2 7 -3 12 -9 11 -7
-2 -12 0 -11 5 4 12 -26 52 -39 52 -6 0 -15 5 -19 12 -5 7 -2 8 7 3 15 -8 -30
32 -86 79 -20 16 -47 48 -61 72 -14 24 -31 44 -37 44 -6 0 -8 3 -4 6 3 4 -4
15 -16 25 -12 10 -18 18 -14 19 11 0 -80 70 -91 70 -15 0 -150 135 -190 190
-42 58 -77 93 -129 128 -58 40 -46 23 48 -71z m-41 -57 c7 -13 7 -20 1 -20 -6
0 -15 9 -21 20 -7 13 -7 20 -1 20 6 0 15 -9 21 -20z m30 -54 c0 -3 -4 -8 -10
-11 -5 -3 -10 -1 -10 4 0 6 5 11 10 11 6 0 10 -2 10 -4z m15 -46 c3 -5 1 -10
-4 -10 -6 0 -11 5 -11 10 0 6 2 10 4 10 3 0 8 -4 11 -10z m19 -35 c3 -8 1 -15
-3 -15 -5 0 -11 7 -15 15 -3 8 -1 15 3 15 5 0 11 -7 15 -15z m246 -153 c0 -11
-22 -32 -32 -32 -5 0 -4 9 2 20 11 20 30 28 30 12z m217 -424 c-3 -8 -6 -5 -6
6 -1 11 2 17 5 13 3 -3 4 -12 1 -19z m220 -7 c15 -12 20 -25 16 -40 -6 -25 -6
-25 -43 -6 -30 16 -42 39 -15 29 8 -4 15 -10 15 -16 0 -5 4 -7 9 -4 5 4 12 0
14 -6 3 -8 6 -6 6 4 1 10 -8 22 -19 28 -11 6 -20 15 -20 20 0 15 12 12 37 -9z
m-330 -48 c-9 -9 -19 -14 -22 -11 -3 3 2 13 11 22 9 9 19 14 22 11 3 -3 -2
-13 -11 -22z m111 -7 c-16 -12 -28 -28 -28 -36 0 -13 2 -13 10 0 6 9 10 10 10
3 0 -17 -35 -34 -54 -27 -12 5 -15 1 -14 -16 2 -17 -5 -24 -34 -35 -21 -7 -38
-10 -38 -8 0 12 78 91 119 120 49 35 73 35 29 -1z m350 -4 c2 -7 -2 -10 -12
-6 -9 3 -16 11 -16 16 0 13 23 5 28 -10z m-208 -22 c0 -5 -2 -10 -4 -10 -3 0
-8 5 -11 10 -3 6 -1 10 4 10 6 0 11 -4 11 -10z m268 -88 c8 -6 22 -17 33 -22
20 -11 45 -50 32 -50 -4 0 -27 18 -50 39 -23 21 -44 36 -47 33 -3 -3 -6 0 -6
7 0 7 -3 10 -7 8 -5 -3 -17 4 -28 15 -20 20 -20 20 20 1 22 -10 46 -24 53 -31z
m316 35 c-6 -16 -44 -40 -51 -33 -6 6 37 45 49 46 4 0 5 -6 2 -13z m-149 -17
c3 -5 1 -10 -4 -10 -6 0 -11 5 -11 10 0 6 2 10 4 10 3 0 8 -4 11 -10z m-623
-32 c-12 -12 -24 -19 -28 -16 -3 4 4 16 16 28 12 12 24 19 28 16 3 -4 -4 -16
-16 -28z m249 -24 c11 -11 21 -30 23 -41 3 -14 -12 -3 -50 34 -30 30 -54 57
-54 59 0 9 60 -30 81 -52z m-321 -24 c-11 -20 -30 -28 -30 -12 0 11 22 32 32
32 5 0 4 -9 -2 -20z m64 -75 c-4 -8 -8 -15 -10 -15 -2 0 -4 7 -4 15 0 8 4 15
10 15 5 0 7 -7 4 -15z m950 -62 c-48 -54 -74 -74 -74 -56 1 13 111 125 117
119 4 -3 -16 -32 -43 -63z m-674 12 c0 -8 -4 -15 -10 -15 -5 0 -7 7 -4 15 4 8
8 15 10 15 2 0 4 -7 4 -15z m260 -23 c0 -5 -13 -21 -30 -37 -37 -35 -37 -42
-3 -77 39 -41 21 -45 -23 -5 l-38 35 38 46 c35 43 56 57 56 38z m-262 -129
c15 -16 43 -40 62 -54 52 -40 31 -44 -23 -6 -26 19 -44 37 -40 40 3 4 1 7 -5
7 -6 0 -16 9 -22 20 -15 28 -3 25 28 -7z m729 11 c-3 -3 -12 -4 -19 -1 -8 3
-5 6 6 6 11 1 17 -2 13 -5z m-813 -39 c9 -14 41 -42 71 -62 30 -19 55 -40 55
-45 0 -10 -6 -7 -70 35 -44 29 -89 74 -90 90 0 16 19 6 34 -18z m800 10 c-7
-16 -44 -41 -44 -29 0 11 32 44 41 44 5 0 6 -7 3 -15z m-733 -143 c24 -20 67
-55 94 -77 75 -59 250 -234 242 -242 -4 -4 -51 37 -105 90 -53 53 -126 119
-162 148 -84 67 -130 107 -130 114 0 13 21 2 61 -33z m89 18 c0 -5 -2 -10 -4
-10 -3 0 -8 5 -11 10 -3 6 -1 10 4 10 6 0 11 -4 11 -10z m470 -55 c0 -8 -4
-15 -10 -15 -5 0 -10 7 -10 15 0 8 5 15 10 15 6 0 10 -7 10 -15z m-556 -60
c29 -19 80 -94 71 -103 -4 -4 -11 2 -17 13 -6 11 -29 37 -50 59 -49 50 -51 61
-4 31z m426 -36 c0 -6 -7 -6 -20 1 -11 6 -20 15 -20 21 0 6 7 6 20 -1 11 -6
20 -15 20 -21z m347 -1 c-3 -8 -6 -5 -6 6 -1 11 2 17 5 13 3 -3 4 -12 1 -19z
m-297 -29 c0 -6 -7 -6 -20 1 -11 6 -20 15 -20 21 0 6 7 6 20 -1 11 -6 20 -15
20 -21z m-460 -89 c6 -11 7 -20 2 -20 -10 0 -32 21 -32 32 0 16 19 8 30 -12z
m705 -36 c-31 -24 -45 -30 -45 -16 0 11 63 52 69 46 4 -3 -7 -17 -24 -30z
m-540 -134 c16 -16 26 -32 24 -35 -8 -7 -47 23 -59 46 -16 28 2 23 35 -11z
m614 -10 c-47 -41 -73 -56 -67 -38 6 17 89 81 96 73 3 -3 -10 -19 -29 -35z
m-661 -62 c7 -7 12 -19 12 -27 0 -11 -4 -10 -20 4 -21 19 -26 35 -12 35 4 0
13 -5 20 -12z m108 -110 c48 -51 86 -105 67 -97 -12 6 -153 155 -153 163 0 14
37 -14 86 -66z m-22 -75 c14 -20 23 -39 21 -42 -6 -5 -64 59 -65 72 -1 18 22
4 44 -30z m620 -99 c4 -10 1 -14 -6 -12 -15 5 -23 28 -10 28 5 0 13 -7 16 -16z
m-235 -44 c-38 -32 -55 -38 -41 -14 10 18 64 55 71 48 3 -2 -11 -18 -30 -34z
m-365 -35 c-7 -16 -44 -41 -44 -29 0 11 32 44 41 44 5 0 6 -7 3 -15z m146 5
c0 -5 -4 -10 -10 -10 -5 0 -10 5 -10 10 0 6 5 10 10 10 6 0 10 -4 10 -10z m24
-46 c4 -10 1 -14 -6 -12 -15 5 -23 28 -10 28 5 0 13 -7 16 -16z m-277 -21 c-9
-9 -19 -14 -22 -11 -3 3 2 13 11 22 9 9 19 14 22 11 3 -3 -2 -13 -11 -22z
m703 -21 c0 -11 -22 -32 -32 -32 -5 0 -4 9 2 20 11 20 30 28 30 12z m-713 -8
c-3 -3 -12 -4 -19 -1 -8 3 -5 6 6 6 11 1 17 -2 13 -5z m323 -14 c7 -13 7 -20
1 -20 -6 0 -15 9 -21 20 -7 13 -7 20 -1 20 6 0 15 -9 21 -20z m35 -50 c18 -20
15 -38 -4 -25 -15 9 -33 45 -23 45 5 0 17 -9 27 -20z m300 -27 c-20 -32 -56
-66 -62 -59 -7 6 59 86 71 86 4 0 1 -12 -9 -27z m-245 7 c0 -5 -4 -10 -10 -10
-5 0 -10 5 -10 10 0 6 5 10 10 10 6 0 10 -4 10 -10z m108 -102 c-2 -6 -10 -14
-16 -16 -7 -2 -10 2 -6 12 7 18 28 22 22 4z m-128 -118 c0 -5 -4 -10 -10 -10
-5 0 -10 5 -10 10 0 6 5 10 10 10 6 0 10 -4 10 -10z m-160 -69 c0 -12 -20 -25
-27 -18 -7 7 6 27 18 27 5 0 9 -4 9 -9z m260 -281 c7 -13 7 -20 1 -20 -6 0
-15 9 -21 20 -7 13 -7 20 -1 20 6 0 15 -9 21 -20z m39 -63 c23 -38 125 -138
159 -156 12 -6 22 -16 22 -22 0 -34 -166 113 -203 179 -24 42 -5 42 22 -1z
m121 -40 c29 -26 50 -50 48 -53 -8 -7 -88 57 -107 85 -22 34 -2 23 59 -32z
m-83 -85 c51 -54 93 -98 93 -99 0 -2 -5 -3 -10 -3 -10 0 -230 218 -230 228 0
15 68 -43 147 -126z m-129 28 c18 -23 30 -45 28 -48 -6 -5 -98 93 -105 112 -8
22 45 -22 77 -64z m77 -108 c41 -46 43 -64 4 -33 -25 20 -69 86 -52 80 5 -2
26 -23 48 -47z m-142 -28 c16 -19 27 -38 24 -40 -7 -8 -61 45 -63 61 -4 24 9
17 39 -21z"/>
<path d="M15500 6901 c0 -5 5 -13 10 -16 6 -3 10 -2 10 4 0 5 -4 13 -10 16 -5
3 -10 2 -10 -4z"/>
<path d="M8240 896 c0 -2 7 -9 15 -16 13 -11 14 -10 9 4 -5 14 -24 23 -24 12z"/>
</g>
</svg>
